<?xml version="1.0" standalone="no"?>
<!DOCTYPE svg PUBLIC "-//W3C//DTD SVG 1.1//EN" "http://www.w3.org/Graphics/SVG/1.1/DTD/svg11.dtd" >
<svg xmlns="http://www.w3.org/2000/svg">
<metadata></metadata>
<defs>
<font id="geogrotesquew01-regularRg" horiz-adv-x="1073" >
<font-face units-per-em="2048" ascent="1536" descent="-512" />
<missing-glyph horiz-adv-x="458" />
<glyph horiz-adv-x="0" />
<glyph unicode="&#xd;" horiz-adv-x="0" />
<glyph horiz-adv-x="0" />
<glyph horiz-adv-x="0" />
<glyph horiz-adv-x="0" />
<glyph unicode="&#x9;" horiz-adv-x="458" />
<glyph unicode="&#xa;" horiz-adv-x="0" />
<glyph unicode=" "  horiz-adv-x="458" />
<glyph unicode="&#x09;" horiz-adv-x="458" />
<glyph unicode="&#xa0;" horiz-adv-x="458" />
<glyph unicode="!" horiz-adv-x="520" d="M186 31v159q0 31 31 31h86q29 0 29 -31v-159q0 -31 -29 -31h-86q-31 0 -31 31zM186 799v563q0 31 29 31h90q29 0 29 -31v-563l-15 -437q0 -31 -28 -30h-62q-29 0 -28 30z" />
<glyph unicode="&#x22;" horiz-adv-x="751" d="M162 1362q0 31 31 31h81q29 0 29 -31l-12 -350q0 -31 -29 -31h-57q-31 0 -31 31zM446 1362q0 31 31 31h82q31 0 31 -31l-12 -350q0 -31 -31 -31h-58q-29 0 -28 31z" />
<glyph unicode="#" horiz-adv-x="1337" d="M170 479v45q0 29 29 29h168l61 223h-143q-31 0 -31 31v47q0 29 31 29h174l55 196q10 31 37 31h61q16 0 21.5 -9t1.5 -22l-55 -196h311l55 196q10 31 37 31h61q16 0 21.5 -9t1.5 -22l-55 -196h125q31 0 30 -29v-47q0 -31 -30 -31h-156l-61 -223h133q29 0 28 -29v-45 q0 -31 -28 -30h-164l-53 -193q-4 -16 -11.5 -24.5t-23.5 -8.5h-64q-33 0 -22 33l55 193h-313l-54 -193q-10 -33 -36 -33h-62q-33 0 -22 33l53 193h-137q-29 0 -29 30zM485 553h314l63 223h-313z" />
<glyph unicode="$" horiz-adv-x="1083" d="M168 406v55q0 29 29 28h75q27 0 27 -28v-49q0 -61 60.5 -95t179.5 -34q117 0 179 33.5t62 95.5v75q0 47 -33.5 73t-87.5 42l-315 105q-27 8 -54.5 26.5t-51 44t-38 57t-14.5 70.5v80q0 43 15.5 82t49.5 69.5t90 52t136 28.5v145q0 31 31 31h84q29 0 29 -31v-148 q150 -16 213 -81.5t63 -147.5v-59q0 -27 -29 -27h-75q-27 0 -27 27v59q0 59 -55.5 93t-171.5 34q-115 0 -169.5 -34t-54.5 -93v-53q0 -47 35 -75t70 -38l315 -102q78 -25 127 -74t49 -121v-116q0 -84 -68.5 -147.5t-221.5 -80.5v-147q0 -31 -29 -31h-84q-31 0 -31 31v145 q-82 6 -140 26.5t-96 51.5t-55.5 69.5t-17.5 82.5z" />
<glyph unicode="%" horiz-adv-x="1589" d="M170 989v223q0 88 61.5 141.5t214.5 53.5q154 0 215.5 -53.5t61.5 -141.5v-223q0 -88 -61.5 -141t-215.5 -53t-215 53t-61 141zM289 993q0 -47 34.5 -73.5t122.5 -26.5t123 26.5t35 73.5v215q0 45 -34.5 73t-123.5 28q-88 0 -122.5 -28t-34.5 -73v-215zM416 10 q-2 10 2 21l622 1331q6 12 16.5 21.5t26.5 9.5h70q16 0 19.5 -9.5t-3.5 -21.5l-620 -1331q-14 -31 -43 -31h-74q-14 0 -16 10zM866 176v223q0 88 61.5 141.5t217.5 53.5q154 0 215 -53.5t61 -141.5v-223q0 -88 -61.5 -141t-214.5 -53q-156 0 -217.5 53t-61.5 141zM987 182 q0 -47 35 -74.5t123 -27.5q86 0 120.5 27.5t34.5 74.5v213q0 47 -34.5 74t-120.5 27q-88 0 -123 -27t-35 -74v-213z" />
<glyph unicode="&#x26;" horiz-adv-x="1376" d="M176 276v226q0 88 38 148.5t153 88.5q-104 27 -140.5 84.5t-36.5 143.5v149q0 61 17.5 114.5t63.5 93.5t125 62.5t200 22.5q123 0 202 -23.5t125 -63.5t63.5 -94t17.5 -116v-45q0 -29 -31 -29h-84q-29 0 -29 29v27q0 45 -12 80.5t-42 61.5t-81 39t-129 13t-128 -13 t-80 -39t-42 -61.5t-12 -80.5v-107q0 -45 11 -81t41 -60.5t82 -36.5t134 -12h660q31 0 30 -31v-61q0 -29 -30 -29h-154v-395q0 -61 -23.5 -115.5t-79 -94.5t-144.5 -63.5t-220 -23.5t-220 22.5t-143.5 62.5t-78 93t-23.5 114zM319 299q0 -90 76 -142.5t248 -52.5t248 52.5 t76 142.5v377h-379q-82 0 -134.5 -12.5t-82 -37t-41 -60.5t-11.5 -81v-186z" />
<glyph unicode="'" horiz-adv-x="464" d="M162 1362q0 31 31 31h81q29 0 29 -31l-12 -350q0 -31 -29 -31h-57q-31 0 -31 31z" />
<glyph unicode="(" horiz-adv-x="724" d="M176 -182v1368q0 59 20.5 107t65.5 83t119 54.5t178 19.5h12q31 0 31 -31v-59q0 -31 -31 -31h-12q-137 0 -186 -43t-49 -115v-1339q0 -72 49 -115t186 -43h12q31 0 31 -30v-60q0 -31 -31 -30h-12q-104 0 -178 19t-119 54t-65.5 83t-20.5 108z" />
<glyph unicode=")" horiz-adv-x="724" d="M123 -356q0 31 31 30h10q137 0 187 43t50 115v1339q0 72 -50 115t-187 43h-10q-31 0 -31 31v59q0 31 31 31h10q104 0 178 -19.5t119 -54.5t65.5 -83t20.5 -107v-1368q0 -59 -20.5 -107.5t-65.5 -83.5t-119 -54t-178 -19h-10q-31 0 -31 30v60z" />
<glyph unicode="*" horiz-adv-x="1044" d="M186.5 1223.5q-2.5 7.5 6.5 23.5l20 41q14 27 41 10l229 -147l-10 272q0 31 29 31h45q29 0 28 -31l-12 -272l228 147q31 18 43 -10l18 -41q6 -14 5 -21t-17 -18l-230 -129l230 -125q16 -10 17 -18t-5 -23l-18 -39q-12 -29 -43 -10l-226 146l10 -262q0 -31 -28 -31h-45 q-29 0 -29 31l8 264l-227 -148q-27 -18 -41 13l-20 36q-14 27 12 41l229 125l-229 129q-16 8 -18.5 15.5z" />
<glyph unicode="+" horiz-adv-x="1185" d="M162 664v61q0 31 31 31h337v338q0 33 29 32h62q29 0 28 -32v-338h344q31 0 31 -31v-61q0 -31 -31 -31h-344v-340q0 -29 -28 -29h-62q-29 0 -29 29v340h-337q-31 0 -31 31z" />
<glyph unicode="," horiz-adv-x="450" d="M33 -88.5q4 8.5 20 14.5q59 27 80 59.5t21 80.5v124q0 31 28 31h88q29 0 29 -31v-131q0 -92 -49 -154.5t-158 -94.5q-29 -10 -37 18l-20 59q-6 16 -2 24.5z" />
<glyph unicode="-" horiz-adv-x="933" d="M162 563v60q0 29 31 28h548q31 0 31 -28v-60q0 -31 -31 -31h-548q-31 0 -31 31z" />
<glyph unicode="." horiz-adv-x="452" d="M154 31v159q0 31 30 31h86q29 0 29 -31v-159q0 -31 -29 -31h-86q-31 0 -30 31z" />
<glyph unicode="/" horiz-adv-x="755" d="M82 -272l442 1673q8 31 35 31h92q31 0 23 -31l-441 -1673q-4 -16 -12 -23.5t-24 -7.5h-93q-33 0 -22 31z" />
<glyph unicode="0" horiz-adv-x="1110" d="M133 283v827q0 61 19.5 115.5t67.5 95.5t129 64.5t206 23.5t207 -23.5t130 -64.5t67.5 -95.5t19.5 -115.5v-827q0 -61 -19.5 -115.5t-67.5 -95.5t-130 -64.5t-207 -23.5t-206 23.5t-129 64.5t-67.5 95t-19.5 116zM279 305q0 -45 12 -81t44 -61.5t85 -39.5t135 -14 q80 0 133 14t85 39.5t45 61.5t13 81v782q0 45 -13 81t-45 61.5t-85 40t-133 14.5q-82 0 -135 -14.5t-85 -40t-44 -61t-12 -81.5v-782z" />
<glyph unicode="1" horiz-adv-x="1110" d="M150 31v65q0 29 30 29h328v1114l-326 -76q-31 -6 -30 25v69q0 29 30 35l443 107q10 2 19 -3t9 -24v-1247h324q31 0 31 -29v-65q0 -31 -31 -31h-797q-31 0 -30 31z" />
<glyph unicode="2" horiz-adv-x="1110" d="M150 993v117q0 61 18 115.5t64.5 95.5t127 64.5t203.5 23.5q125 0 206 -23.5t128 -64.5t66.5 -95.5t19.5 -115.5v-227q0 -61 -19.5 -105.5t-48 -74t-60.5 -47t-56 -25.5l-348 -111q-18 -6 -42 -15t-44.5 -24.5t-35 -39t-14.5 -56.5v-260h643q31 0 31 -29v-65 q0 -31 -31 -31h-759q-29 0 -29 31v395q0 47 18.5 79t45 53.5t55 33.5t49.5 18l381 127q14 4 34.5 14.5t39 27t32 42t13.5 60.5v206q0 45 -12.5 82t-43 62.5t-84 40t-135.5 14.5q-80 0 -132 -14.5t-84 -40t-44 -62t-12 -82.5v-94q0 -33 -29 -32h-82q-31 0 -30 32z" />
<glyph unicode="3" horiz-adv-x="1110" d="M127 281v45q0 29 29 28h84q29 0 28 -28v-27q0 -45 13.5 -81t46 -61.5t86 -39t131.5 -13.5q156 0 215 52.5t59 142.5v186q0 45 -11 81t-41 60.5t-82 37t-134 12.5h-182q-31 0 -31 29v61q0 31 31 31h170q80 0 132 12t81.5 36.5t41 60.5t11.5 81v107q0 45 -12.5 80.5 t-42 61.5t-79.5 39t-128 13t-129.5 -13t-81 -39t-41.5 -61.5t-12 -80.5v-27q0 -29 -29 -29h-84q-29 0 -29 29v45q0 61 17.5 115.5t63.5 94.5t125 63.5t202 23.5q121 0 199.5 -22.5t123.5 -62.5t62.5 -93t17.5 -115v-149q0 -86 -34.5 -143.5t-141.5 -84.5q115 -29 153 -89 t38 -148v-226q0 -61 -19.5 -114t-67 -93t-127 -62.5t-202.5 -22.5t-204 23.5t-129 63.5t-67.5 94t-19.5 116z" />
<glyph unicode="4" horiz-adv-x="1110" d="M96 471v59q0 10 1 16.5t5 16.5l287 799q6 16 13.5 23.5t23.5 7.5h86q33 0 23 -31l-287 -797h545v797q0 31 30 31h88q29 0 29 -31v-1331q0 -31 -29 -31h-88q-31 0 -30 31v409h-666q-31 0 -31 31z" />
<glyph unicode="5" horiz-adv-x="1110" d="M152 279v45q0 31 30 30h82q31 0 31 -30v-25q0 -45 11 -81t40 -61.5t80 -39t131 -13.5t130 13.5t80 39t40 61.5t10 81v258q0 33 -12 63.5t-42 55t-81 39t-131 14.5h-336q-29 0 -29 31v602q0 31 29 31h684q31 0 31 -31v-64q0 -31 -31 -30h-567v-418h221q211 0 311.5 -74 t100.5 -201v-296q0 -61 -17.5 -115.5t-62.5 -94.5t-125 -63.5t-203 -23.5t-202 23.5t-124 63.5t-62 94t-17 116z" />
<glyph unicode="6" horiz-adv-x="1110" d="M145 283v837q0 53 17.5 105.5t63.5 93.5t125 65.5t204 24.5t204 -25.5t124 -66.5t61.5 -92t16.5 -105v-37q0 -31 -31 -30h-82q-29 0 -29 30v19q0 37 -11 70.5t-40 59t-81 41t-132 15.5t-131 -14t-82 -40t-42 -59.5t-11 -72.5v-375q33 47 101.5 74.5t184.5 27.5 q117 0 195 -23.5t123 -64.5t63.5 -95t18.5 -116v-247q0 -61 -18.5 -115.5t-65.5 -95.5t-127 -64.5t-205 -23.5q-123 0 -204 23.5t-127 64.5t-64.5 95t-18.5 116zM289 301q0 -45 12 -81t43 -61.5t83 -40t132 -14.5q82 0 134 14.5t83 40t43 61.5t12 81v211q0 45 -12 81 t-43 61.5t-83 40t-134 14.5q-152 0 -211 -49.5t-59 -131.5v-227z" />
<glyph unicode="7" horiz-adv-x="1110" d="M106 1298v64q0 31 33 31h840q29 0 29 -31v-62q0 -8 -2 -15t-5 -11l-524 -1243q-4 -12 -12 -21.5t-25 -9.5h-100q-35 0 -23 31l525 1237h-703q-33 0 -33 30z" />
<glyph unicode="8" horiz-adv-x="1110" d="M141 283v221q0 86 43 147.5t158 89.5q-109 27 -146.5 88.5t-37.5 147.5v133q0 61 15 115.5t58 95.5t121 64.5t203 23.5t203 -23.5t121 -64.5t58 -95.5t15 -115.5v-133q0 -86 -37.5 -147.5t-148.5 -88.5q117 -29 160 -90t43 -147v-221q0 -61 -18.5 -115.5t-64.5 -95.5 t-126 -64.5t-205 -23.5t-205 23.5t-126 64.5t-64.5 95t-18.5 116zM287 301q0 -45 11 -81t41 -61.5t82 -40t134 -14.5q80 0 132 14.5t83 40t43 61.5t12 81v182q0 45 -12 82t-43 62.5t-83 39t-132 13.5q-82 0 -134 -13.5t-82 -39t-41 -62.5t-11 -82v-182zM301 997 q0 -45 9 -81.5t37 -62.5t78 -40t130 -14t130 14t78 40t38 62.5t10 81.5v95q0 45 -10 80.5t-38 61.5t-78 40t-130 14t-130 -14t-78 -40t-37 -61.5t-9 -80.5v-95z" />
<glyph unicode="9" horiz-adv-x="1110" d="M135 862v248q0 61 18.5 115.5t64.5 95.5t127 64.5t206 23.5t205 -23.5t126 -64.5t64.5 -95.5t18.5 -115.5v-838q0 -53 -17.5 -105t-62.5 -93t-125 -65.5t-205 -24.5q-123 0 -202 25.5t-124 66.5t-61 92t-16 104v37q0 31 28 31h84q29 0 29 -31v-18q0 -37 10 -71t40 -59.5 t81 -41t131 -15.5t132 14.5t81 40t40 59.5t11 73v373q-33 -47 -101.5 -74t-185.5 -27t-193.5 23.5t-121.5 64.5t-63.5 95.5t-18.5 115.5zM279 881q0 -45 12 -81t43 -61.5t83 -40t134 -14.5q154 0 211 50t57 136v222q0 45 -11 80.5t-42 61.5t-83 40t-132 14q-82 0 -134 -14 t-83 -40t-43 -61.5t-12 -80.5v-211z" />
<glyph unicode=":" horiz-adv-x="452" d="M154 31v159q0 31 30 31h86q29 0 29 -31v-159q0 -31 -29 -31h-86q-31 0 -30 31zM154 819v162q0 31 30 31h86q29 0 29 -31v-162q0 -29 -29 -28h-86q-31 0 -30 28z" />
<glyph unicode=";" horiz-adv-x="552" d="M135 -113q-10 27 19 39q61 29 81.5 60.5t20.5 79.5v124q0 31 31 31h84q29 0 28 -31v-131q0 -92 -49 -153.5t-155 -95.5q-29 -10 -39 18zM256 819v162q0 31 31 31h84q29 0 28 -31v-162q0 -29 -28 -28h-84q-31 0 -31 28z" />
<glyph unicode="&#x3c;" horiz-adv-x="1103" d="M162 651v92q0 14 8 20.5t20 12.5l721 326q14 6 22.5 -2t8.5 -25v-82q0 -14 -8 -20t-23 -12l-608 -265l608 -264q14 -6 22.5 -12t8.5 -21v-82q0 -39 -31 -26l-721 325q-12 6 -20 12.5t-8 22.5z" />
<glyph unicode="=" horiz-adv-x="1204" d="M162 465v61q0 29 31 29h819q31 0 30 -29v-61q0 -29 -30 -29h-819q-31 0 -31 29zM162 831v62q0 29 31 29h819q31 0 30 -29v-62q0 -31 -30 -30h-819q-31 0 -31 30z" />
<glyph unicode="&#x3e;" horiz-adv-x="1103" d="M162 315v82q0 16 8 23.5t23 13.5l608 262l-608 262q-14 6 -22.5 12.5t-8.5 22.5v84q0 39 31 27l720 -326q12 -6 20.5 -12t8.5 -23v-92q0 -16 -8 -23t-21 -14l-720 -325q-31 -12 -31 26z" />
<glyph unicode="?" horiz-adv-x="1161" d="M154 993v117q0 61 19.5 115.5t68.5 95.5t131 64.5t207 23.5t206.5 -23.5t131 -64.5t70 -95.5t20.5 -115.5v-156q0 -61 -17.5 -105t-44 -77t-55.5 -52.5t-53 -31.5l-109 -53q-35 -16 -68.5 -49t-33.5 -97v-127q0 -31 -29 -30h-88q-29 0 -29 30v160q0 45 14.5 79t35 56.5 t44 37t41.5 24.5l144 74q12 6 29.5 18t34 31.5t27.5 46t11 61.5v137q0 45 -14 82t-47 62.5t-87.5 40t-133.5 14.5q-82 0 -136.5 -14.5t-87 -40t-47 -62t-14.5 -82.5v-94q0 -33 -29 -32h-82q-31 0 -30 32zM481 31v159q0 31 29 31h88q29 0 29 -31v-159q0 -31 -29 -31h-88 q-29 0 -29 31z" />
<glyph unicode="@" horiz-adv-x="1744" d="M186 113v807q0 72 27 136t102.5 113.5t208.5 79t348 29.5t349.5 -29.5t209 -79t102.5 -114t28 -135.5v-582q0 -121 -60.5 -195.5t-206.5 -74.5q-98 0 -152.5 35.5t-76.5 95.5q-20 -16 -53 -39t-75 -43.5t-93 -34.5t-109 -14q-129 0 -184 59t-55 158v21t2 24l34 346 q12 121 75 191.5t202 70.5q49 0 92 -11.5t80 -28.5t66.5 -37.5t52.5 -37.5l10 70q6 29 35 29h72q27 0 24 -29l-53 -531q-8 -80 16.5 -133t98.5 -53q72 0 95 50t23 128v559q0 55 -24.5 101.5t-86 78t-168 50t-270.5 18.5t-270 -18.5t-167.5 -50t-86 -77.5t-24.5 -102v-796 q0 -55 24.5 -100.5t86 -78t168 -51t269.5 -18.5h377q31 0 31 -29v-59q0 -31 -31 -31h-377q-215 0 -348 30t-208.5 80t-102.5 115.5t-27 137.5zM635 330q0 -55 35 -92t118 -37q43 0 82 11t73 26.5t59.5 32t41.5 26.5q0 6 -1 13t1 18l41 379q-16 12 -38.5 30.5t-52 34.5 t-66.5 27.5t-82 11.5q-49 0 -82 -13.5t-53.5 -35t-30.5 -51t-12 -60.5l-29 -278q-2 -16 -3 -27.5t-1 -15.5z" />
<glyph unicode="A" horiz-adv-x="1077" d="M49 31l408 1331q8 31 39 31h88q27 0 37 -31l409 -1331q2 -6 2 -11q0 -20 -26 -20h-88q-29 0 -37 31l-113 364h-469l-111 -364q-4 -16 -11 -23.5t-23 -7.5h-82q-25 0 -25 18q0 6 2 13zM334 512h403l-149 479q-8 25 -16.5 64t-15.5 76.5t-12 68.5t-7 39q0 -6 -5.5 -33.5 t-12.5 -64.5t-16 -77t-18 -69z" />
<glyph unicode="B" horiz-adv-x="1191" d="M186 31v1331q0 31 29 31h352q127 0 212 -22.5t136.5 -60.5t73 -90.5t21.5 -113.5v-135q0 -84 -41 -145.5t-144 -96.5q125 -29 183.5 -93.5t58.5 -158.5v-182q0 -61 -21.5 -115.5t-72.5 -94.5t-137 -62.5t-213 -22.5h-408q-29 0 -29 31zM330 121h293q164 0 231.5 53 t67.5 143v152q0 84 -68 137t-231 53h-293v-538zM330 774h258q150 0 214 54.5t64 144.5v110q0 92 -67.5 140.5t-231.5 48.5h-237v-498z" />
<glyph unicode="C" horiz-adv-x="1130" d="M162 283v827q0 61 20.5 115.5t69.5 95.5t132 64.5t210 23.5t210 -23.5t132 -64.5t69.5 -95.5t20.5 -115.5v-104q0 -33 -29 -33h-82q-31 0 -30 33v81q0 45 -14.5 81t-48.5 61.5t-89 40t-137 14.5t-137.5 -14.5t-89 -40t-48 -61t-14.5 -81.5v-782q0 -45 14.5 -81t48 -61.5 t89 -39.5t137.5 -14q162 0 225.5 53t63.5 143v109q0 31 30 30h82q29 0 29 -30v-131q0 -61 -20.5 -115.5t-69.5 -95.5t-132 -64.5t-210 -23.5t-210 23.5t-132 64.5t-69.5 95t-20.5 116z" />
<glyph unicode="D" horiz-adv-x="1232" d="M186 31v1331q0 31 27 31h414q127 0 212 -23.5t137 -64.5t73.5 -95.5t21.5 -115.5v-795q0 -61 -21.5 -115.5t-73.5 -95.5t-137 -64.5t-212 -23.5h-416q-25 0 -25 31zM330 125h297q164 0 231.5 53t67.5 144v749q0 88 -67.5 142.5t-231.5 54.5h-297v-1143z" />
<glyph unicode="E" d="M186 31v1331q0 31 29 31h698q31 0 31 -31v-64q0 -31 -31 -30h-583v-477h547q31 0 30 -31v-60q0 -31 -30 -30h-547v-545h608q31 0 31 -29v-65q0 -31 -31 -31h-725q-27 0 -27 31z" />
<glyph unicode="F" horiz-adv-x="1081" d="M186 31v1331q0 31 29 31h752q31 0 30 -31v-64q0 -31 -30 -30h-637v-480h600q29 0 28 -30v-66q0 -31 -28 -30h-600v-631q0 -31 -29 -31h-86q-29 0 -29 31z" />
<glyph unicode="G" horiz-adv-x="1161" d="M162 283v827q0 61 20.5 115.5t69.5 95.5t132 64.5t210 23.5t210 -23.5t132 -64.5t69.5 -95.5t20.5 -115.5v-98q0 -29 -29 -29h-82q-31 0 -30 29v75q0 45 -14.5 81t-48.5 61.5t-89 40t-137 14.5t-137.5 -14.5t-89 -40t-48 -61t-14.5 -81.5v-782q0 -45 14.5 -81t48 -61.5 t89 -39.5t137.5 -14q162 0 225.5 52t63.5 142v242h-275q-29 0 -28 30v66q0 29 28 29h385q31 0 31 -29v-358q0 -61 -20.5 -115.5t-69.5 -95.5t-132 -64.5t-210 -23.5t-210 23.5t-132 64.5t-69.5 95t-20.5 116z" />
<glyph unicode="H" horiz-adv-x="1257" d="M186 31v1331q0 31 29 31h86q29 0 29 -31v-563h596v563q0 31 28 31h88q29 0 29 -31v-1331q0 -31 -29 -31h-88q-29 0 -28 31v645h-596v-645q0 -31 -29 -31h-86q-29 0 -29 31z" />
<glyph unicode="I" horiz-adv-x="516" d="M186 31v1331q0 31 29 31h86q29 0 29 -31v-1331q0 -31 -29 -31h-86q-29 0 -29 31z" />
<glyph unicode="J" horiz-adv-x="1015" d="M61 283v92q0 33 31 33h84q29 0 29 -33v-70q0 -45 11 -81t40 -61.5t76 -39.5t121 -14t121 14t74.5 39.5t38.5 61.5t11 81v1057q0 31 29 31h86q31 0 31 -31v-1079q0 -61 -17.5 -115.5t-61.5 -95.5t-120 -64.5t-192 -23.5q-117 0 -192 23.5t-120 64.5t-62.5 95t-17.5 116z " />
<glyph unicode="K" horiz-adv-x="1124" d="M184 31v1331q0 31 31 31h86q29 0 29 -31v-610h63l473 612q20 29 52 29h94q16 0 20 -8.5t-6 -22.5l-510 -655l567 -676q7 -7 7 -14q0 -3 -2 -7q-5 -10 -19 -10h-115q-16 0 -26 9t-21 22l-514 610h-63v-610q0 -31 -29 -31h-86q-31 0 -31 31z" />
<glyph unicode="L" horiz-adv-x="1003" d="M186 31v1331q0 31 29 31h88q29 0 29 -31v-1237h573q29 0 29 -29v-65q0 -31 -29 -31h-694q-25 0 -25 31z" />
<glyph unicode="M" horiz-adv-x="1486" d="M184 31v1331q0 31 31 31h78q20 0 26 -17l388 -905q16 -37 25 -67.5t11 -36.5q2 4 14.5 38.5t24.5 63.5l379 907q6 16 29 17h82q31 0 31 -31v-1331q0 -31 -31 -31h-82q-31 0 -31 31v1056q-6 -27 -18.5 -64.5t-22.5 -61.5l-297 -717q-12 -31 -41 -31h-75q-27 0 -39 31 l-310 735q-6 14 -15 43t-19 63v-1054q0 -31 -29 -31h-78q-31 0 -31 31z" />
<glyph unicode="N" horiz-adv-x="1255" d="M184 31v1331q0 31 31 31h78q18 0 24 -13l555 -977q6 -10 16.5 -30.5t20.5 -40.5q10 -23 25 -51v1081q0 31 29 31h77q29 0 29 -31v-1331q0 -31 -29 -31h-77q-20 0 -29 14l-543 963q-35 59 -51 94t-18 39v-1079q0 -31 -29 -31h-78q-31 0 -31 31z" />
<glyph unicode="O" horiz-adv-x="1210" d="M162 283v827q0 61 21.5 115.5t73.5 95.5t136 64.5t211 23.5t213 -23.5t137.5 -64.5t73 -95.5t21.5 -115.5v-827q0 -61 -21.5 -115.5t-73 -95.5t-137.5 -64.5t-213 -23.5t-211 23.5t-136 64.5t-73.5 95t-21.5 116zM307 305q0 -90 67.5 -143t229.5 -53q164 0 231.5 53 t67.5 143v782q0 90 -67.5 143.5t-231.5 53.5q-162 0 -229.5 -53t-67.5 -144v-782z" />
<glyph unicode="P" horiz-adv-x="1159" d="M186 31v1331q0 31 27 31h405q127 0 213.5 -23.5t137.5 -64.5t72.5 -95.5t21.5 -115.5v-256q0 -61 -21.5 -115.5t-72.5 -96.5t-137.5 -65.5t-213.5 -23.5h-288v-506q0 -31 -29 -31h-86q-29 0 -29 31zM330 662h288q164 0 232 54t68 144v211q0 88 -68 142.5t-232 54.5h-288 v-606z" />
<glyph unicode="Q" horiz-adv-x="1208" d="M162 283v827q0 61 21.5 115.5t73.5 95.5t136 64.5t211 23.5t213 -23.5t137.5 -64.5t73 -95.5t21.5 -115.5v-827q0 -53 -15.5 -100.5t-51.5 -85.5t-94.5 -64.5t-144.5 -38.5l275 -252q25 -20 4 -43l-45 -47q-9 -12 -20 -12q-10 0 -21 10l-363 334q-117 2 -195.5 27.5 t-126.5 65.5t-68.5 93t-20.5 113zM307 303q0 -92 67.5 -145.5t229.5 -53.5q164 0 231.5 53.5t67.5 145.5v787q0 92 -67.5 145t-231.5 53q-162 0 -229.5 -53t-67.5 -145v-787z" />
<glyph unicode="R" horiz-adv-x="1208" d="M186 31v1331q0 31 27 31h405q127 0 213.5 -23.5t137.5 -64.5t72.5 -95.5t21.5 -115.5v-230q0 -47 -13.5 -91t-43 -81t-77.5 -64.5t-120 -41.5l266 -555q2 -6 2 -10q0 -7 -5 -13q-9 -8 -25 -8h-86q-16 0 -22.5 8t-14.5 23l-254 536h-52h-288v-536q0 -31 -29 -31h-86 q-29 0 -29 31zM330 690h288q164 0 232 54.5t68 144.5v182q0 88 -68 142.5t-232 54.5h-288v-578z" />
<glyph unicode="S" horiz-adv-x="1157" d="M145 283v112q0 31 29 31h84q29 0 29 -31v-94q0 -45 15 -81t50 -61.5t91.5 -39t138.5 -13.5q164 0 230.5 52.5t66.5 142.5v127q0 39 -15.5 68.5t-40 50t-54.5 35t-60 26.5l-367 142q-33 12 -64.5 34.5t-57 53t-41 70.5t-15.5 87v115q0 61 20.5 115.5t68.5 95.5t129 64.5 t204 23.5t204.5 -23.5t131 -64.5t70 -95.5t20.5 -115.5v-96q0 -31 -31 -31h-84q-29 0 -29 31v78q0 90 -60 142t-220 52q-80 0 -134.5 -13t-87 -39t-47 -61.5t-14.5 -80.5v-62q0 -37 11.5 -64.5t28.5 -46t39 -29.5l40 -20l385 -145q41 -16 80 -38.5t68.5 -55.5t47 -76 t17.5 -96v-176q0 -61 -21.5 -115.5t-72.5 -95.5t-135 -64.5t-209 -23.5t-209 23.5t-135.5 64.5t-73 95t-21.5 116z" />
<glyph unicode="T" horiz-adv-x="989" d="M37 1298v64q0 31 31 31h852q31 0 30 -31v-64q0 -31 -30 -30h-353v-1237q0 -31 -28 -31h-88q-31 0 -31 31v1237h-352q-31 0 -31 30z" />
<glyph unicode="U" horiz-adv-x="1232" d="M174 283v1079q0 31 29 31h88q29 0 28 -31v-1057q0 -90 67 -143t228 -53q164 0 232.5 53t68.5 143v1057q0 31 29 31h86q29 0 29 -31v-1079q0 -61 -21.5 -115.5t-73 -95.5t-137.5 -64.5t-213 -23.5t-211 23.5t-135 64.5t-72.5 95t-21.5 116z" />
<glyph unicode="V" horiz-adv-x="1077" d="M49 1362q-2 7 -2 13q0 18 25 18h94q16 0 23.5 -7.5t11.5 -23.5l293 -961q8 -27 15 -60.5t14 -66t11.5 -57t6.5 -31.5q0 4 4 25.5t11 52.5t15.5 67t18.5 66l295 965q8 31 35 31h86q26 0 26 -19q0 -5 -2 -12l-409 -1331q-10 -31 -37 -31h-88q-31 0 -39 31z" />
<glyph unicode="W" horiz-adv-x="1640" d="M47 1362q-2 7 -2 12q0 19 27 19h88q16 0 23 -7.5t12 -23.5l243 -963q4 -23 11.5 -49t11.5 -49q6 -27 10 -53q2 20 8 43q4 20 9.5 47t15.5 61l246 963q8 31 36 31h82q16 0 23.5 -7.5t11.5 -23.5l244 -963q12 -51 21.5 -100t11.5 -61q0 8 7 49t25 112l246 963q8 31 37 31 h76q24 0 24 -19q0 -5 -2 -12l-338 -1331q-10 -31 -36 -31h-86q-29 0 -37 31l-248 979q-12 47 -18.5 89t-8.5 52q-2 -10 -10 -56t-18 -87l-248 -977q-10 -31 -39 -31h-86q-27 0 -35 31z" />
<glyph unicode="X" horiz-adv-x="1130" d="M81 10q-1 3 -1 6q0 8 6 19l393 676l-383 649q-8 12 -6 22.5t19 10.5h102q16 0 26.5 -9.5t18.5 -21.5l315 -531l301 531q16 31 43 31h95q31 0 14 -31l-381 -655l399 -676q5 -8 5 -15q0 -2 -1 -6q-4 -10 -20 -10h-100q-16 0 -26.5 9t-18.5 22l-326 549l-315 -549 q-8 -12 -17.5 -21.5t-25.5 -9.5h-97q-16 0 -19 10z" />
<glyph unicode="Y" horiz-adv-x="1058" d="M41 1386q6 7 22 7h99q16 0 23.5 -8.5t13.5 -22.5l301 -594q14 -29 21 -51.5t9 -26.5q0 4 10.5 32t20.5 46l311 594q6 12 13.5 21.5t23.5 9.5h86q25 0 25 -16q0 -6 -4 -15l-412 -795v-536q0 -31 -31 -31h-86q-31 0 -30 31v520l-414 811q-5 9 -5 16q0 4 3 8z" />
<glyph unicode="Z" horiz-adv-x="1030" d="M104 31v65q0 14 5 21l628 1151h-567q-31 0 -31 30v64q0 31 31 31h715q31 0 30 -31v-64q0 -14 -6 -22l-630 -1151h639q31 0 30 -29v-65q0 -31 -30 -31h-785q-29 0 -29 31z" />
<glyph unicode="[" horiz-adv-x="749" d="M176 -401v1802q0 31 31 31h383q29 0 28 -31v-64q0 -31 -28 -30h-266v-1614h266q29 0 28 -31v-63q0 -31 -28 -31h-383q-31 0 -31 31z" />
<glyph unicode="\" horiz-adv-x="755" d="M82 1401q-10 31 22 31h93q16 0 24 -7.5t12 -23.5l441 -1673q10 -31 -23 -31h-92q-29 0 -35 31z" />
<glyph unicode="]" horiz-adv-x="749" d="M131 -338q0 31 31 31h264v1614h-264q-31 0 -31 30v64q0 31 31 31h381q29 0 28 -31v-1802q0 -31 -28 -31h-381q-31 0 -31 31v63z" />
<glyph unicode="^" horiz-adv-x="1140" d="M164 643l325 721q6 12 11.5 20.5t21.5 8.5h92q16 0 22.5 -8.5t12.5 -20.5l326 -721q6 -16 -1 -24.5t-24 -8.5h-84q-14 0 -20 8.5t-12 24.5l-267 606l-262 -606q-6 -16 -12 -24.5t-21 -8.5h-82q-16 0 -24 8.5t-2 24.5z" />
<glyph unicode="_" horiz-adv-x="886" d="M47 -203q0 29 29 29h735q31 0 31 -29v-61q0 -29 -31 -29h-735q-29 0 -29 29v61z" />
<glyph unicode="`" horiz-adv-x="677" d="M186.5 1440.5q3.5 9.5 20.5 9.5h90q16 0 24.5 -8t16.5 -21l137 -229q10 -14 4 -21.5t-18 -7.5h-70q-16 0 -24.5 6.5t-12.5 12.5l-161 237q-10 12 -6.5 21.5z" />
<glyph unicode="a" horiz-adv-x="1034" d="M127 225v103q0 100 66.5 170.5t199.5 70.5h352v185q0 35 -10 63.5t-36.5 50t-71.5 32.5t-113 11t-113 -11t-71.5 -30.5t-37.5 -48t-11 -63.5v-25q0 -33 -31 -33h-74q-29 0 -29 33v35q0 57 18.5 105.5t61.5 82t114 53t175 19.5t175 -19.5t114 -53t61.5 -82t18.5 -105.5 v-737q0 -31 -29 -31h-74q-29 0 -30 31l-4 73q-23 -18 -56 -38.5t-75 -39t-94 -30.5t-113 -12q-143 0 -213 70.5t-70 170.5zM264 244q0 -68 43 -105t135 -37q55 0 103.5 12.5t86.5 31t66.5 38t46.5 33.5v240h-325q-84 0 -120 -40t-36 -108v-65z" />
<glyph unicode="b" d="M162 31v1370q0 31 31 31h81q29 0 29 -31v-494q23 16 55.5 38t75.5 40.5t97.5 30.5t119.5 12q147 0 215 -72.5t68 -189.5v-520q0 -117 -67.5 -189.5t-215.5 -72.5q-66 0 -121 12t-99 30.5t-76.5 40t-53.5 39.5l-4 -75q-2 -16 -8 -23.5t-23 -7.5h-73q-31 0 -31 31zM303 227 q18 -12 47 -31.5t68 -38t88 -31.5t106 -13q100 0 140.5 45t40.5 108v479q0 63 -40 108.5t-141 45.5q-57 0 -106 -13.5t-88 -31.5t-67.5 -37.5t-47.5 -34.5v-555z" />
<glyph unicode="c" horiz-adv-x="980" d="M139 248v516q0 59 18.5 107.5t62.5 83t116 54t176 19.5t176 -19.5t116 -54t62.5 -83t18.5 -107.5v-39q0 -31 -31 -31h-76q-31 0 -30 31v31q0 35 -11.5 63.5t-38 49t-71.5 31.5t-113 11t-113 -11t-71.5 -31.5t-37.5 -49t-11 -63.5v-498q0 -37 11 -65.5t37.5 -49t71.5 -32 t113 -11.5t113 11.5t71.5 32t38 49t11.5 65.5v45q0 31 30 31h76q31 0 31 -31v-55q0 -59 -19.5 -107.5t-63.5 -83t-116 -54t-176 -19.5t-176 19.5t-115 54t-61.5 82.5t-18.5 108z" />
<glyph unicode="d" d="M139 246v520q0 117 68.5 189.5t216.5 72.5q63 0 116.5 -12t96.5 -30.5t77 -40t56 -38.5v494q0 31 29 31h82q31 0 30 -31v-1370q0 -31 -30 -31h-74q-29 0 -31 31l-4 75q-23 -18 -55.5 -39.5t-76.5 -40t-98.5 -30.5t-117.5 -12q-147 0 -216 72.5t-69 189.5zM281 266 q0 -63 40.5 -108t139.5 -45q57 0 105 13t88 31.5t69 38t47 31.5v555q-18 14 -47 34t-69 38t-88 31.5t-105 13.5q-98 0 -139 -45t-41 -109v-479z" />
<glyph unicode="e" horiz-adv-x="1007" d="M139 248v516q0 59 19.5 107.5t63.5 83t116 54t178 19.5q104 0 176 -19.5t115 -54t61.5 -83t18.5 -107.5v-252q0 -29 -29 -29h-579v-227q0 -35 10 -64.5t37.5 -50t72.5 -32t117 -11.5q70 0 116 11.5t73.5 32t38 50t10.5 64.5v35q0 29 28 28h74q31 0 31 -28v-43 q0 -59 -18.5 -107.5t-62.5 -83t-116 -54t-178 -19.5q-104 0 -176 19.5t-116 54t-62.5 82.5t-18.5 108zM279 592h475v164q0 70 -51.5 113.5t-186.5 43.5q-70 0 -115 -11t-72.5 -32.5t-38.5 -50t-11 -63.5v-164z" />
<glyph unicode="f" horiz-adv-x="659" d="M57 922v49q0 29 29 30l111 7h16v176q0 57 20.5 106t65.5 83t119 53.5t178 19.5h12q31 0 31 -29v-61q0 -31 -31 -31h-12q-137 0 -188.5 -42t-51.5 -114v-161h224q31 0 30 -29v-57q0 -31 -30 -31h-224v-860q0 -31 -30 -31h-82q-31 0 -31 31v860h-127q-29 0 -29 31z" />
<glyph unicode="g" d="M139 246v520q0 117 68.5 189.5t216.5 72.5q63 0 118.5 -13.5t98.5 -31.5t76 -39.5t55 -40.5l4 78q2 31 31 31h74q31 0 30 -31v-1139q0 -59 -20.5 -107t-65.5 -83t-118.5 -54.5t-178.5 -19.5h-278q-31 0 -31 29v61q0 29 31 29h278q137 0 189.5 43t52.5 115v247 q-23 -16 -56.5 -36.5t-76.5 -39t-96.5 -30.5t-116.5 -12q-147 0 -216 72.5t-69 189.5zM281 266q0 -63 40.5 -108t139.5 -45q57 0 105 13t88 31.5t69 38t47 31.5v555q-18 14 -47 34t-69 38t-88 31.5t-105 13.5q-98 0 -139 -45t-41 -109v-479z" />
<glyph unicode="h" horiz-adv-x="1083" d="M162 31v1370q0 31 31 31h81q29 0 29 -31v-494q23 18 55.5 40t76.5 39.5t97.5 29.5t118.5 12q143 0 213 -70.5t70 -181.5v-745q0 -31 -29 -31h-82q-31 0 -30 31v714q0 70 -41 113t-140 43q-57 0 -105 -12t-88 -30.5t-68.5 -38t-47.5 -34.5v-755q0 -31 -29 -31h-81 q-31 0 -31 31z" />
<glyph unicode="i" horiz-adv-x="466" d="M162 31v950q0 31 31 31h81q29 0 29 -31v-950q0 -31 -29 -31h-81q-31 0 -31 31zM162 1210v191q0 31 31 31h81q29 0 29 -31v-191q0 -30 -27 -30h-2h-81q-31 0 -31 30z" />
<glyph unicode="j" horiz-adv-x="464" d="M-121 -332q0 29 29 29h14q137 0 188.5 43t51.5 115v1126q0 31 28 31h84q29 0 29 -31v-1139q0 -59 -20.5 -107t-65.5 -83t-117.5 -54.5t-177.5 -19.5h-14q-29 0 -29 29v61zM162 1210v191q0 31 28 31h84q29 0 29 -31v-191q0 -30 -27 -30h-2h-84q-29 0 -28 30z" />
<glyph unicode="k" horiz-adv-x="940" d="M162 31v1370q0 31 28 31h84q29 0 29 -31v-778h68l348 358q10 12 22.5 21.5t26.5 9.5h92q16 0 20.5 -9.5t-6.5 -21.5l-387 -408l435 -542q7 -7 7 -15q0 -4 -1 -6q-4 -10 -21 -10h-92q-16 0 -27.5 8t-21.5 23l-393 483h-70v-483q0 -31 -29 -31h-84q-29 0 -28 31z" />
<glyph unicode="l" horiz-adv-x="466" d="M162 31v1370q0 31 31 31h81q29 0 29 -31v-1370q0 -31 -29 -31h-81q-31 0 -31 31z" />
<glyph unicode="m" horiz-adv-x="1691" d="M162 31v950q0 31 31 31h73q31 0 31 -31l2 -76q20 18 52 40t74 40.5t95 30.5t119 12q104 0 167.5 -38t92.5 -101q18 16 49 39.5t75 46t102.5 38t131.5 15.5q143 0 214 -70.5t71 -181.5v-745q0 -31 -31 -31h-81q-31 0 -31 31v714q0 70 -41 113t-139 43q-59 0 -107.5 -13.5 t-86.5 -31.5t-64.5 -38.5t-40.5 -35.5q2 -8 2 -17v-20v-714q0 -31 -29 -31h-82q-31 0 -31 31v714q0 70 -41 113t-139 43q-57 0 -104 -12t-85 -30.5t-65 -38t-43 -34.5v-755q0 -31 -29 -31h-81q-31 0 -31 31z" />
<glyph unicode="n" horiz-adv-x="1083" d="M162 31v950q0 31 31 31h73q16 0 22.5 -7.5t8.5 -23.5l4 -78q20 18 54 40t78 41.5t98.5 31.5t119.5 12q143 0 213 -70.5t70 -181.5v-745q0 -31 -29 -31h-82q-31 0 -30 31v714q0 70 -41 113t-140 43q-57 0 -105 -12t-88 -30.5t-68.5 -38t-47.5 -34.5v-755q0 -31 -29 -31 h-81q-31 0 -31 31z" />
<glyph unicode="o" horiz-adv-x="1050" d="M139 248v516q0 59 20.5 107.5t66.5 83t120 54t178 19.5t178 -19.5t120 -54t67.5 -83t21.5 -107.5v-516q0 -59 -21.5 -107.5t-67.5 -83t-119.5 -54t-178.5 -19.5q-104 0 -178 19.5t-120 54t-66.5 82.5t-20.5 108zM281 258q0 -72 54 -115t189 -43q137 0 191.5 43t54.5 115 v496q0 72 -54 114.5t-192 42.5q-135 0 -189 -43t-54 -114v-496z" />
<glyph unicode="p" d="M162 -393v1374q0 31 31 31h73q16 0 22.5 -7.5t8.5 -23.5l4 -78q20 18 53 40t77 40t99.5 31.5t120.5 13.5q147 0 215 -72.5t68 -189.5v-520q0 -117 -67.5 -189.5t-215.5 -72.5q-66 0 -119 12t-97 30.5t-76.5 39t-55.5 36.5v-495q0 -29 -29 -29h-81q-31 0 -31 29zM303 227 q18 -12 47 -31.5t68 -38t88 -31.5t106 -13q100 0 140.5 45t40.5 108v479q0 63 -40 108.5t-141 45.5q-57 0 -106 -13.5t-88 -31.5t-67.5 -37.5t-47.5 -34.5v-555z" />
<glyph unicode="q" d="M139 246v520q0 117 68.5 189.5t216.5 72.5q63 0 117.5 -13.5t98.5 -31.5t77 -39.5t55 -40.5l4 78q2 31 31 31h74q31 0 30 -31v-1374q0 -29 -30 -29h-82q-29 0 -29 29v495q-23 -16 -56.5 -36.5t-76.5 -39t-96.5 -30.5t-116.5 -12q-147 0 -216 72.5t-69 189.5zM281 266 q0 -63 40.5 -108t139.5 -45q57 0 105 13t88 31.5t69 38t47 31.5v555q-18 14 -47 34t-69 38t-88 31.5t-105 13.5q-98 0 -139 -45t-41 -109v-479z" />
<glyph unicode="r" horiz-adv-x="706" d="M162 31v950q0 31 31 31h73q16 0 22.5 -7.5t8.5 -23.5l6 -100q20 20 54 45.5t77 48t94.5 38t108.5 15.5q33 0 33 -31v-67q0 -31 -33 -31q-57 -2 -109.5 -18.5t-96.5 -38t-76.5 -44t-51.5 -36.5v-731q0 -31 -29 -31h-81q-31 0 -31 31z" />
<glyph unicode="s" horiz-adv-x="952" d="M113 215v55q0 29 28 29h76q27 0 27 -29v-49q0 -61 60.5 -95t178.5 -34q117 0 179.5 34t62.5 95v76q0 47 -34 72.5t-87 42.5l-315 104q-27 8 -54.5 26.5t-51 44t-38 57.5t-14.5 71v80q0 45 18.5 88t60.5 74.5t109.5 51t165.5 19.5t166 -19.5t110 -51t61.5 -74.5t19.5 -88 v-60q0 -27 -29 -26h-76q-27 0 -26 26v60q0 59 -55.5 93t-172.5 34q-115 0 -169 -34t-54 -93v-54q0 -47 35 -74.5t70 -37.5l315 -103q78 -25 127 -74t49 -120v-117q0 -47 -21.5 -88t-66.5 -74t-115.5 -51t-169.5 -18q-98 0 -168.5 18t-115.5 51t-65.5 74t-20.5 88z" />
<glyph unicode="t" horiz-adv-x="710" d="M53 922v49q0 29 29 30l106 7h17v217q0 30 29 30h2h83q29 0 29 -30v-217h230q31 0 30 -29v-57q0 -31 -30 -31h-230v-612q0 -72 50.5 -115t187.5 -43h35q31 0 30 -31v-59q0 -31 -30 -31h-54q-104 0 -174.5 18.5t-111.5 52t-58.5 83t-17.5 110.5v627h-123q-29 0 -29 31z" />
<glyph unicode="u" horiz-adv-x="1071" d="M150 233v748q0 31 28 31h84q29 0 29 -31v-715q0 -72 42 -113.5t140 -41.5q55 0 102.5 12t84 29.5t64.5 37t44 33.5v758q0 31 29 31h84q29 0 28 -31v-950q0 -31 -28 -31h-76q-29 0 -31 31l-4 73q-20 -18 -51 -38.5t-73 -39t-95 -30.5t-117 -12q-143 0 -213.5 69.5 t-70.5 179.5z" />
<glyph unicode="v" horiz-adv-x="884" d="M37 981q-1 5 -1 9q0 8 4 14q7 8 23 8h89q16 0 23 -8.5t11 -22.5l230 -678q4 -16 9 -35.5t9 -38t7 -33t3 -20.5q2 8 9.5 48t21.5 77l234 680q4 14 11 22.5t23 8.5h78q29 0 29 -19q0 -5 -2 -12l-330 -952q-4 -16 -10 -22.5t-23 -6.5h-94q-23 0 -31 29z" />
<glyph unicode="w" horiz-adv-x="1343" d="M37 981q-2 6 -2 11q0 20 31 20h81q27 0 33 -31l193 -713q6 -27 10 -52.5t6 -29.5q0 4 6 29t15 53l196 713q4 14 11.5 22.5t23.5 8.5h88q27 0 33 -31l184 -713l19 -80q0 4 5 27t15 53l191 713q4 14 11 22.5t23 8.5h70q27 0 27 -19q0 -5 -2 -12l-267 -952q-8 -29 -30 -29 h-99q-27 0 -32 29l-181 692q-8 29 -13 58.5t-7 37.5l-25 -98l-196 -690q-4 -14 -10.5 -21.5t-22.5 -7.5h-94q-16 0 -22.5 6t-10.5 23z" />
<glyph unicode="x" horiz-adv-x="950" d="M60 9q-2 3 -2 7q0 7 5 15l328 483l-317 467q-10 12 -6 21.5t20 9.5h94q16 0 25.5 -9.5t19.5 -21.5l254 -369l244 369q8 12 18.5 21.5t26.5 9.5h82q16 0 20.5 -9.5t-6.5 -21.5l-317 -471l330 -479q5 -8 5 -15q0 -2 -1 -6q-4 -10 -21 -10h-92q-16 0 -26.5 9t-18.5 22 l-264 381l-254 -381q-8 -12 -18.5 -21.5t-26.5 -9.5h-82q-16 0 -20 9z" />
<glyph unicode="y" horiz-adv-x="884" d="M37 981q-1 5 -1 9q0 8 4 14q7 8 23 8h84q16 0 23.5 -8.5t11.5 -22.5l232 -680q14 -43 20 -81t8 -42q2 6 12.5 46t20.5 73l234 684q4 14 11 22.5t23 8.5h78q29 0 29 -19q0 -5 -2 -12l-469 -1374q-4 -12 -11.5 -21.5t-23.5 -9.5h-63q-35 0 -25 31l123 385z" />
<glyph unicode="z" horiz-adv-x="929" d="M96 31v57q0 12 8 25l519 780h-469q-31 0 -31 31v59q0 29 31 29h614q31 0 31 -29v-57q0 -16 -6 -25l-523 -782h527q31 0 30 -31v-57q0 -31 -30 -31h-670q-31 0 -31 31z" />
<glyph unicode="{" horiz-adv-x="917" d="M115 479v60q0 31 30 30h2q125 0 173.5 43t48.5 115v459q0 59 20.5 107t65.5 83t117.5 54.5t177.5 19.5h14q29 0 29 -31v-59q0 -31 -29 -31h-14q-135 0 -185.5 -43t-50.5 -115v-458q0 -164 -166 -203q166 -43 166 -205v-473q0 -72 50 -115t186 -43h14q29 0 29 -30v-60 q0 -31 -29 -30h-14q-104 0 -177 19t-118 54t-65.5 83t-20.5 108v475q0 72 -48.5 114t-173.5 42h-2q-31 0 -30 30z" />
<glyph unicode="|" horiz-adv-x="516" d="M186 -401v1802q0 31 29 31h88q29 0 29 -31v-1802q0 -31 -29 -31h-88q-29 0 -29 31z" />
<glyph unicode="}" horiz-adv-x="917" d="M123 -356q0 31 31 30h12q137 0 186 43t49 115v473q0 162 168 205q-168 39 -168 203v458q0 72 -49 115t-186 43h-12q-31 0 -31 31v59q0 31 31 31h12q104 0 178 -19.5t119 -54.5t65.5 -83t20.5 -107v-459q0 -72 48 -115t173 -43h2q29 0 29 -30v-60q0 -31 -29 -30h-2 q-125 0 -173 -42t-48 -114v-475q0 -59 -20.5 -107.5t-65.5 -83.5t-119 -54t-178 -19h-12q-31 0 -31 30v60z" />
<glyph unicode="~" horiz-adv-x="995" d="M162 473l4 57q6 98 49 137.5t96 39.5q27 0 52.5 -9.5t48.5 -19.5l176 -92q18 -10 43.5 -19.5t42.5 -9.5q31 0 43 20.5t12 77.5v17q0 27 33 26h45q29 0 27 -34l-5 -56q-8 -102 -49 -139t-92 -37q-23 0 -53.5 7t-59.5 24l-180 92q-14 8 -34.5 16.5t-36.5 8.5 q-35 0 -43.5 -19.5t-14.5 -75.5l-2 -18q-2 -27 -33 -27h-43q-31 0 -26 33z" />
<glyph unicode="&#xa1;" horiz-adv-x="520" d="M186 213l15 436q0 31 28 31h62q29 0 28 -31l15 -436v-563q0 -31 -29 -31h-90q-29 0 -29 31v563zM188 821v160q0 31 29 31h86q31 0 31 -31v-160q0 -31 -31 -30h-86q-29 0 -29 30z" />
<glyph unicode="&#xa2;" horiz-adv-x="1083" d="M170 438v516q0 53 15.5 98.5t50 79t93 55t142.5 27.5v148q0 31 31 31h84q29 0 28 -31v-148q84 -6 141.5 -27.5t93.5 -55t51 -78.5t15 -99v-39q0 -31 -30 -30h-76q-31 0 -31 30v31q0 35 -11 63.5t-38 49t-72 32t-112 11.5q-68 0 -113 -11.5t-71.5 -32t-38 -49t-11.5 -63.5 v-497q0 -37 11.5 -66t38 -49.5t71.5 -31.5t113 -11t112.5 11t71.5 31.5t38 49.5t11 66v45q0 31 31 30h76q31 0 30 -30v-56q0 -109 -66.5 -178.5t-234.5 -83.5v-145q0 -31 -28 -31h-84q-31 0 -31 31v145q-86 6 -143.5 27.5t-92 55.5t-50 79t-15.5 100z" />
<glyph unicode="&#xa3;" horiz-adv-x="1355" d="M170 31v61q0 29 29 29h120v516h-120q-29 0 -29 31v61q0 29 29 29h120v364q0 61 17.5 113.5t61.5 91.5t123 60.5t202 21.5t202 -21.5t124 -60.5t62 -91t17 -114v-59q0 -31 -28 -31h-82q-29 0 -29 31v37q0 45 -11 78.5t-41 57.5t-82 36t-132 12t-130 -12t-79 -36t-39 -57.5 t-10 -78.5v-342h313q31 0 31 -29v-61q0 -31 -31 -31h-313v-516h412q37 0 68.5 10t54 34.5t36 69t13.5 111.5v12q0 33 28 33h78q31 0 31 -33v-12q0 -104 -21.5 -172t-58.5 -106.5t-87 -53t-108 -14.5h-712q-29 0 -29 31z" />
<glyph unicode="&#xa4;" horiz-adv-x="1134" d="M49 553v35q0 31 31 30h94v156h-94q-31 0 -31 31v37q0 29 31 28h94v240q0 61 20.5 115.5t69.5 95.5t132 64.5t210 23.5t210 -23.5t132 -64.5t69.5 -95.5t20.5 -115.5v-104q0 -33 -28 -33h-82q-31 0 -31 33v81q0 45 -14.5 81t-48 61.5t-89 40t-137.5 14.5t-137 -14.5 t-89 -40t-48.5 -61t-14.5 -81.5v-217h320q31 0 31 -28v-37q0 -31 -31 -31h-320v-156h320q31 0 31 -30v-35q0 -31 -31 -31h-320v-217q0 -45 14.5 -81t48.5 -61.5t89 -39.5t137 -14q162 0 225.5 53t63.5 143v109q0 31 31 30h82q29 0 28 -30v-131q0 -61 -20.5 -115.5 t-69.5 -95.5t-132 -64.5t-210 -23.5t-210 23.5t-132 64.5t-69.5 95t-20.5 116v239h-94q-31 0 -31 31z" />
<glyph unicode="&#xa5;" horiz-adv-x="1323" d="M174 1385.5q6 7.5 23 7.5h98q16 0 23.5 -8.5t13.5 -22.5l301 -594q14 -29 21.5 -51.5t9.5 -26.5q0 4 10 32t20 46l312 594q6 12 13 21.5t23 9.5h86q35 0 21 -31l-246 -475h146q31 0 30 -29v-37q0 -31 -30 -30h-197l-80 -156h277q31 0 30 -29v-37q0 -31 -30 -30h-312v-508 q0 -31 -30 -31h-86q-31 0 -31 31v508h-314q-29 0 -28 30v37q0 29 28 29h271l-80 156h-191q-29 0 -28 30v37q0 29 28 29h142l-242 475q-8 16 -2 23.5z" />
<glyph unicode="&#xa6;" horiz-adv-x="466" d="M162 287q0 31 31 30h81q29 0 29 -30v-688q0 -31 -29 -31h-81q-31 0 -31 31v688zM162 674v688q0 31 31 31h81q29 0 29 -31v-688q0 -31 -29 -31h-81q-31 0 -31 31z" />
<glyph unicode="&#xa7;" horiz-adv-x="1124" d="M186 -145q0 31 29 30h74q31 0 30 -30v-33q0 -72 51.5 -114t188.5 -42t188.5 43t51.5 115v166q0 31 -15.5 51t-37 34.5t-45 22.5t-37.5 13l-277 79q-27 8 -58.5 25.5t-59 45.5t-46 67t-18.5 88v207q0 31 28 30h76q29 0 29 -30v-195q0 -31 13.5 -53.5t31.5 -37.5 t37.5 -24.5t34.5 -13.5l288 -84q27 -8 61 -23.5t64.5 -41t51 -63.5t20.5 -91v-162q0 -57 -19.5 -106.5t-64.5 -84t-117.5 -55t-177.5 -20.5q-104 0 -176 18.5t-116 53t-63.5 82t-19.5 106.5v27zM186 981v164q0 57 19.5 105t63.5 83t117 55.5t177 20.5t177 -18.5t117 -52 t63.5 -82t19.5 -107.5v-25q0 -31 -31 -30h-73q-29 0 -29 30v31q0 72 -51 113t-189 41q-137 0 -189 -41t-52 -113v-166q0 -31 16 -51t37.5 -34.5t45.5 -23t38 -12.5l274 -82q27 -8 58.5 -25.5t59.5 -45t46.5 -66.5t18.5 -88v-207q0 -31 -29 -30h-74q-29 0 -29 30v195 q0 31 -13 53.5t-31.5 37.5t-38 24.5t-33.5 13.5l-289 86q-27 8 -60.5 22.5t-64.5 40t-51.5 63.5t-20.5 91z" />
<glyph unicode="&#xa8;" horiz-adv-x="663" d="M166 1210v199q0 31 31 31h51q29 0 28 -31v-199q0 -29 -28 -28h-51q-31 0 -31 28zM387 1210v199q0 31 29 31h51q29 0 29 -31v-199q0 -29 -29 -28h-51q-29 0 -29 28z" />
<glyph unicode="&#xa9;" horiz-adv-x="1490" d="M186 350v692q0 70 19.5 136.5t80 118t170 82t289.5 30.5t290 -30.5t169.5 -82t80 -118t20.5 -136.5v-692q0 -72 -20.5 -137.5t-80 -116.5t-169 -81.5t-290.5 -30.5q-180 0 -289.5 30.5t-170 81.5t-80 117t-19.5 137zM293 334q0 -55 21.5 -102.5t73.5 -81t139 -52 t218 -18.5t218.5 18.5t139.5 52t73.5 81t21.5 102.5v727q0 55 -21.5 101t-73.5 80t-139 53.5t-219 19.5q-131 0 -218 -19.5t-139 -53.5t-73.5 -81t-21.5 -102v-725zM451 520v350q0 57 12 105.5t46 81.5t90 51t146 18t147.5 -18t90.5 -51t45 -81t12 -106v-30q0 -31 -28 -31 h-68q-31 0 -31 31v28q0 35 -6 64t-24.5 49t-51 31.5t-86.5 11.5q-53 0 -85.5 -11.5t-50 -31.5t-23.5 -49t-6 -64v-344q0 -37 6 -65.5t23.5 -49t50 -31.5t85.5 -11t86 11t51.5 31.5t24.5 49t6 65.5v43q0 33 31 33h68q29 0 28 -33v-47q0 -59 -12 -106t-45 -80t-90 -51.5 t-148 -18.5q-90 0 -146 18.5t-90 51.5t-46 80t-12 106z" />
<glyph unicode="&#xaa;" horiz-adv-x="720" d="M125 928v59q0 61 42 104.5t126 43.5h196v112q0 35 -25.5 58.5t-96.5 23.5q-72 0 -98.5 -23.5t-26.5 -58.5v-16q0 -20 -21 -21h-61q-20 0 -21 21v20q0 72 53.5 115t176.5 43t175 -44t52 -118v-434q0 -23 -21 -22h-57q-20 0 -22 22l-4 39q-27 -23 -75 -47.5t-120 -24.5 q-92 0 -132 43t-40 105zM231 942q0 -35 22 -57.5t73 -22.5q59 0 103 24.5t60 39.5v133h-176q-41 0 -61.5 -21.5t-20.5 -56.5v-39z" />
<glyph unicode="&#xab;" horiz-adv-x="1189" d="M164 461v84q0 12 8 21t18 18l379 284q10 10 20.5 5t10.5 -21v-88q0 -16 -9 -25.5t-22 -19.5l-290 -217l290 -215q12 -10 21.5 -20.5t9.5 -26.5v-88q0 -16 -10 -20.5t-21 3.5l-379 285q-10 8 -18 17t-8 24zM590 461v84q0 12 8 21t18 18l379 284q10 10 20.5 5t10.5 -21v-88 q0 -16 -9 -25.5t-22 -19.5l-290 -217l290 -215q12 -10 21.5 -20.5t9.5 -26.5v-88q0 -16 -10 -20.5t-21 3.5l-379 285q-10 8 -18 17t-8 24z" />
<glyph unicode="&#xac;" horiz-adv-x="776" d="M156 643q0 47 18.5 89t49 74t72.5 50t89 18q49 0 91 -18t73 -50t49 -74t18 -89t-18 -89t-49 -72.5t-73 -49t-91 -18.5q-47 0 -89 18.5t-72.5 49t-49 72.5t-18.5 89z" />
<glyph unicode="&#xad;" horiz-adv-x="933" d="M162 563v60q0 29 31 28h548q31 0 31 -28v-60q0 -31 -31 -31h-548q-31 0 -31 31z" />
<glyph unicode="&#xae;" horiz-adv-x="1273" d="M186 760v366q0 45 15.5 94.5t62.5 91.5t137.5 69.5t237.5 27.5q150 0 239 -27.5t136 -69.5t61.5 -91.5t14.5 -94.5v-366q0 -45 -14.5 -94.5t-61.5 -91.5t-136.5 -69.5t-238.5 -27.5q-147 0 -237.5 27.5t-137.5 69.5t-62.5 91.5t-15.5 94.5zM285 752q0 -33 14 -67 t53 -60.5t107.5 -43t179.5 -16.5t179.5 16.5t106.5 43t52 59.5t14 66v385q0 33 -14 65.5t-52 59t-106.5 43t-179.5 16.5t-179.5 -16.5t-107.5 -43t-53 -59.5t-14 -65v-383zM438 686v502q0 23 23 22h201q61 0 100 -13t62.5 -34.5t31.5 -49.5t8 -54v-47q0 -41 -20.5 -79 t-77.5 -56l80 -191q8 -23 -21 -22h-59q-16 0 -23 22l-75 176h-6h-123v-176q0 -23 -21 -22h-59q-20 0 -21 22zM539 938h112q57 0 84 23.5t27 54.5v37q0 35 -26.5 57.5t-84.5 22.5h-112v-195z" />
<glyph unicode="&#xaf;" horiz-adv-x="851" d="M139 1253v52q0 29 29 28h516q31 0 31 -28v-52q0 -31 -31 -30h-516q-29 0 -29 30z" />
<glyph unicode="&#xb0;" horiz-adv-x="829" d="M131 1014v198q0 43 13.5 79t46 61.5t88 40t137.5 14.5t136 -14.5t87 -40t46 -61.5t13 -79v-198q0 -43 -13 -79t-46 -61.5t-87 -40t-136 -14.5t-137.5 14.5t-88 40t-46 61.5t-13.5 79zM254 1020q0 -47 37 -74.5t125 -27.5t125 27.5t37 74.5v188q0 45 -37 73t-125 28 t-125 -28t-37 -73v-188z" />
<glyph unicode="&#xb1;" horiz-adv-x="1185" d="M162 223v60q0 31 31 30h800q31 0 31 -30v-60q0 -31 -31 -30h-800q-31 0 -31 30zM162 750v61q0 29 31 29h337v250q0 31 29 30h62q29 0 28 -30v-250h344q31 0 31 -29v-61q0 -31 -31 -31h-344v-252q0 -31 -28 -31h-62q-29 0 -29 31v252h-337q-31 0 -31 31z" />
<glyph unicode="&#xb2;" horiz-adv-x="765" d="M121 1153v70q0 37 12 70.5t41 59t79 41t126 15.5t127 -15.5t80.5 -41t42 -59t12.5 -70.5v-125q0 -39 -11.5 -66.5t-28.5 -47t-36.5 -30t-34.5 -16.5l-217 -78q-6 -2 -17 -5t-22.5 -10t-19.5 -18.5t-8 -27.5v-144h379q23 0 22 -22v-47q0 -23 -22 -23h-469q-20 0 -21 23 v231q0 27 10.5 46.5t24.5 31.5t30.5 19.5t30.5 13.5l234 84q18 6 42.5 22.5t24.5 57.5v116q0 49 -33.5 79t-119.5 30t-117 -30t-31 -79v-55q0 -25 -22 -25h-66q-23 0 -22 25z" />
<glyph unicode="&#xb3;" horiz-adv-x="763" d="M121 737v31q0 20 22 20h66q23 0 22 -20v-14q0 -51 33 -80t117 -29q86 0 118.5 28.5t32.5 80.5v98q0 53 -30.5 79.5t-116.5 26.5h-104q-25 0 -25 23v45q0 23 25 23h94q88 0 117.5 26.5t29.5 79.5v57q0 51 -28.5 80t-112.5 29q-86 0 -115.5 -28.5t-29.5 -80.5v-14 q0 -20 -21 -20h-65q-23 0 -23 20v31q0 37 11.5 69.5t39 58t76.5 40t127 14.5q76 0 125 -14.5t77.5 -39t40 -58t11.5 -70.5v-88q0 -51 -21.5 -84t-81.5 -49q66 -18 88.5 -55.5t22.5 -88.5v-129q0 -37 -12.5 -69.5t-42 -57t-79.5 -39t-126 -14.5t-126 14.5t-81 40t-43 58 t-12 69.5z" />
<glyph unicode="&#xb4;" horiz-adv-x="677" d="M196.5 1170.5q-6.5 7.5 4.5 21.5l137 229q8 12 16 20.5t25 8.5h90q16 0 20.5 -9t-6.5 -22l-161 -237q-4 -6 -12.5 -12.5t-24.5 -6.5h-68q-14 0 -20.5 7.5z" />
<glyph unicode="&#xb5;" horiz-adv-x="1071" d="M150 -391v1372q0 31 28 31h84q29 0 29 -31v-715q0 -72 42 -113.5t140 -41.5q55 0 102.5 12t84 29.5t64.5 37t44 33.5v758q0 31 29 31h84q29 0 28 -31v-950q0 -31 -28 -31h-76q-29 0 -31 31l-4 73q-20 -18 -51 -38.5t-73 -39t-95 -30.5t-117 -12q-53 0 -89 12t-62 33 l8 -420q0 -31 -29 -31h-84q-29 0 -28 31z" />
<glyph unicode="&#xb6;" horiz-adv-x="1320" d="M186 846v278q0 57 18.5 107.5t62.5 85.5t121 55.5t194 20.5h209q29 0 28 -29v-1755q0 -31 -31 -31h-86q-31 0 -30 31v969h-90q-117 0 -194 20t-121 55t-62.5 84t-18.5 109zM991 -391v1753q0 31 29 31h88q29 0 29 -31v-1753q0 -31 -29 -31h-88q-29 0 -29 31z" />
<glyph unicode="&#xb7;" horiz-adv-x="452" d="M154 463v160q0 31 30 30h86q29 0 29 -30v-160q0 -31 -29 -31h-86q-31 0 -30 31z" />
<glyph unicode="&#xb8;" horiz-adv-x="378" d="M-6 -371q0 29 31 29h217q27 0 56.5 12.5t29.5 59.5t-29 59t-57 12h-127q-29 0 -36 10.5t-3 28.5l45 170q8 29 35 27l39 -6q31 -6 20 -37l-29 -103h76q31 0 61.5 -8t55 -26.5t39 -49t14.5 -75.5t-14.5 -76t-39 -50.5t-55 -28.5t-61.5 -9h-237q-31 0 -31 31v30z" />
<glyph unicode="&#xb9;" horiz-adv-x="768" d="M121 590v47q0 23 22 22h187v635l-187 -39q-20 -6 -20 17v51q0 18 20 23l279 61q6 2 13 -1t7 -20v-727h185q20 0 20 -22v-47q0 -23 -20 -23h-484q-23 0 -22 23z" />
<glyph unicode="&#xba;" horiz-adv-x="733" d="M123 944v301q0 74 56.5 119t187.5 45q129 0 186 -45t57 -119v-301q0 -74 -57 -119t-186 -45q-131 0 -187.5 45t-56.5 119zM233 954q0 -41 31 -63.5t103 -22.5t102.5 22.5t30.5 63.5v281q0 41 -31 64.5t-102 23.5q-72 0 -103 -23.5t-31 -64.5v-281z" />
<glyph unicode="&#xbb;" horiz-adv-x="1189" d="M164 168v88q0 16 9 25.5t22 19.5l290 217l-290 215q-12 10 -21.5 20.5t-9.5 26.5v88q0 16 10 20.5t21 -3.5l378 -285q10 -8 18.5 -17.5t8.5 -23.5v-84q0 -12 -8 -21.5t-19 -17.5l-378 -284q-10 -10 -20.5 -5t-10.5 21zM590 168v88q0 16 9 25.5t22 19.5l290 217l-290 215 q-12 10 -21.5 20.5t-9.5 26.5v88q0 16 10 20.5t21 -3.5l378 -285q10 -8 18.5 -17.5t8.5 -23.5v-84q0 -12 -8 -21.5t-19 -17.5l-378 -284q-10 -10 -20.5 -5t-10.5 21z" />
<glyph unicode="&#xbc;" horiz-adv-x="1710" d="M121 590v47q0 23 22 22h187v637l-187 -41q-20 -6 -20 17v51q0 18 20 23l279 61q6 2 13 -1t7 -20v-727h185q20 0 20 -22v-47q0 -23 -20 -23h-484q-23 0 -22 23zM635 -78l401 1548q6 23 29 23h72q23 0 16 -23l-403 -1548q-4 -12 -8.5 -17t-16.5 -5h-72q-25 0 -18 22z M1061 276v46q0 8 4 16l164 475q6 23 26 23h70q25 0 16 -23l-159 -467h295v467q0 23 22 23h70q23 0 22 -23v-790q0 -23 -22 -23h-70q-23 0 -22 23v231h-392q-25 0 -24 22z" />
<glyph unicode="&#xbd;" horiz-adv-x="1742" d="M121 590v47q0 23 22 22h187v637l-187 -41q-20 -6 -20 17v51q0 18 20 23l279 61q6 2 13 -1t7 -20v-727h185q20 0 20 -22v-47q0 -23 -20 -23h-484q-23 0 -22 23zM621 -78l403 1548q6 23 27 23h71q23 0 17 -23l-404 -1548q-4 -12 -8 -17t-16 -5h-72q-25 0 -18 22zM1096 590 v69q0 37 12 71t42 59.5t80 41t126 15.5t127 -15.5t80.5 -41t42 -59.5t12.5 -71v-124q0 -39 -11.5 -67t-28.5 -47.5t-36.5 -29.5t-34.5 -16l-217 -78q-6 -2 -17 -6t-22.5 -11.5t-19.5 -17.5t-8 -26v-144h379q20 0 20 -22v-47q0 -23 -20 -23h-469q-20 0 -21 23v231 q0 27 10.5 46t24.5 31.5t30.5 19.5t30.5 14l234 84q18 6 41.5 22t23.5 57v117q0 49 -32.5 79t-118.5 30t-117 -30t-31 -79v-55q0 -25 -22 -25h-66q-25 0 -24 25z" />
<glyph unicode="&#xbe;" horiz-adv-x="1714" d="M121 735v31q0 20 22 20h66q23 0 22 -20v-14q0 -51 33 -80t117 -29q86 0 118.5 28.5t32.5 80.5v98q0 53 -30.5 79.5t-116.5 26.5h-104q-25 0 -25 23v45q0 23 25 23h94q88 0 117.5 26.5t29.5 79.5v57q0 51 -28.5 80t-112.5 29q-86 0 -115.5 -28.5t-29.5 -80.5v-14 q0 -20 -21 -20h-65q-23 0 -23 20v31q0 37 11.5 69.5t39 58t76.5 40t127 14.5q76 0 125 -14.5t77.5 -39t40 -58t11.5 -70.5v-88q0 -51 -21.5 -84t-81.5 -49q66 -18 88.5 -55.5t22.5 -88.5v-129q0 -37 -12.5 -69.5t-42 -57t-79.5 -39t-126 -14.5t-126 14.5t-81 40t-43 58 t-12 69.5zM641 -78l403 1548q6 23 25 23h74q20 0 14 -23l-403 -1548q-6 -23 -23 -22h-74q-23 0 -16 22zM1065 276v46q0 12 2 16l164 475q6 23 29 23h69q25 0 17 -23l-162 -467h297v467q0 23 22 23h68q23 0 22 -23v-790q0 -23 -22 -23h-68q-23 0 -22 23v231h-394 q-23 0 -22 22z" />
<glyph unicode="&#xbf;" horiz-adv-x="1161" d="M154 57q0 61 17 105.5t44 77t55.5 52t53.5 32.5l108 53q35 16 69 49t34 96v127q0 31 28 31h88q29 0 29 -31v-160q0 -47 -14.5 -79.5t-35 -55t-44 -38t-41.5 -23.5l-144 -74q-12 -6 -29.5 -18.5t-33.5 -31.5t-27.5 -46t-11.5 -62v-137q0 -45 14.5 -82t47 -62.5t87 -39.5 t134.5 -14q82 0 136 14t87 39.5t47 62.5t14 82v94q0 33 29 33h82q31 0 31 -33v-116q0 -61 -19.5 -115.5t-69 -95.5t-131 -64.5t-206.5 -23.5t-207 23.5t-131 64.5t-69.5 95t-20.5 116v155zM535 821v160q0 31 28 31h88q29 0 29 -31v-160q0 -31 -29 -30h-88q-29 0 -28 30z" />
<glyph unicode="&#xc0;" horiz-adv-x="1077" d="M49 31l408 1331q8 31 39 31h88q27 0 37 -31l409 -1331q8 -31 -24 -31h-88q-29 0 -37 31l-113 364h-469l-111 -364q-4 -16 -11 -23.5t-23 -7.5h-82q-33 0 -23 31zM293 1788.5q4 9.5 20 9.5h90q16 0 24.5 -8t16.5 -21l138 -229q18 -31 -15 -31h-69q-16 0 -24.5 7.5 t-12.5 13.5l-162 237q-10 12 -6 21.5zM334 512h403l-149 479q-8 25 -16.5 64t-15.5 76.5t-12 68.5t-7 39q0 -6 -5.5 -33.5t-12.5 -64.5t-16 -77t-18 -69z" />
<glyph unicode="&#xc1;" horiz-adv-x="1077" d="M49 31l408 1331q8 31 39 31h88q27 0 37 -31l409 -1331q8 -31 -24 -31h-88q-29 0 -37 31l-113 364h-469l-111 -364q-4 -16 -11 -23.5t-23 -7.5h-82q-33 0 -23 31zM334 512h403l-149 479q-8 25 -16.5 64t-15.5 76.5t-12 68.5t-7 39q0 -6 -5.5 -33.5t-12.5 -64.5t-16 -77 t-18 -69zM492 1540l137 229q8 12 15 20.5t24 8.5h90q16 0 20 -9t-4 -22l-162 -237q-4 -6 -13 -12.5t-26 -6.5h-67q-31 0 -14 29z" />
<glyph unicode="&#xc2;" horiz-adv-x="1077" d="M49 31l408 1331q8 31 39 31h88q27 0 37 -31l409 -1331q8 -31 -24 -31h-88q-29 0 -37 31l-113 364h-469l-111 -364q-4 -16 -11 -23.5t-23 -7.5h-82q-33 0 -23 31zM302.5 1519.5q-5.5 8.5 4.5 20.5l158 227q10 12 20.5 21.5t26.5 9.5h53q16 0 26.5 -8t20.5 -21l158 -229 q20 -29 -16 -29h-66q-23 0 -41 29l-108 168l-109 -168q-6 -10 -15 -19.5t-26 -9.5h-65q-16 0 -21.5 8.5zM334 512h403l-149 479q-8 25 -16.5 64t-15.5 76.5t-12 68.5t-7 39q0 -6 -5.5 -33.5t-12.5 -64.5t-16 -77t-18 -69z" />
<glyph unicode="&#xc3;" horiz-adv-x="1077" d="M49 31l408 1331q8 31 39 31h88q27 0 37 -31l409 -1331q8 -31 -24 -31h-88q-29 0 -37 31l-113 364h-469l-111 -364q-4 -16 -11 -23.5t-23 -7.5h-82q-33 0 -23 31zM242 1571l4 55q6 92 47 127t100 35q57 0 113 -39l90 -66q18 -14 39.5 -25t38.5 -11q35 0 43 20.5t10 77.5 v16q0 27 33 27h45q27 0 26 -33l-2 -51q-4 -92 -47 -129t-102 -37q-23 0 -52.5 9t-58.5 28l-92 65q-18 14 -39 25.5t-37 11.5q-35 0 -44 -20.5t-11 -75.5v-16q0 -29 -31 -29h-47q-20 0 -23 12.5t-3 22.5zM334 512h403l-149 479q-8 25 -16.5 64t-15.5 76.5t-12 68.5t-7 39 q0 -6 -5.5 -33.5t-12.5 -64.5t-16 -77t-18 -69z" />
<glyph unicode="&#xc4;" horiz-adv-x="1077" d="M49 31l408 1331q8 31 39 31h88q27 0 37 -31l409 -1331q8 -31 -24 -31h-88q-29 0 -37 31l-113 364h-469l-111 -364q-4 -16 -11 -23.5t-23 -7.5h-82q-33 0 -23 31zM334 512h403l-149 479q-8 25 -16.5 64t-15.5 76.5t-12 68.5t-7 39q0 -6 -5.5 -33.5t-12.5 -64.5t-16 -77 t-18 -69zM375 1554v199q0 29 31 29h49q29 0 28 -29v-199q0 -31 -28 -30h-49q-31 0 -31 30zM594 1554v199q0 29 31 29h49q31 0 31 -29v-199q0 -31 -31 -30h-49q-31 0 -31 30z" />
<glyph unicode="&#xc5;" horiz-adv-x="1077" d="M49 31l408 1331q8 31 39 31h88q27 0 37 -31l409 -1331q8 -31 -24 -31h-88q-29 0 -37 31l-113 364h-469l-111 -364q-4 -16 -11 -23.5t-23 -7.5h-82q-33 0 -23 31zM334 512h403l-149 479q-8 25 -16.5 64t-15.5 76.5t-12 68.5t-7 39q0 -6 -5.5 -33.5t-12.5 -64.5t-16 -77 t-18 -69zM344 1628v35q0 63 45 108.5t150 45.5q104 0 149 -45.5t45 -108.5v-35q0 -63 -45 -108t-149 -45t-149.5 45t-45.5 108zM434 1638q0 -37 22.5 -61.5t82.5 -24.5q57 0 81.5 25t24.5 61v15q0 37 -24.5 61.5t-81.5 24.5q-59 0 -82 -24.5t-23 -61.5v-15z" />
<glyph unicode="&#xc6;" horiz-adv-x="1718" d="M49.5 7q-8.5 7 1.5 24l776 1331q6 10 16.5 20.5t26.5 10.5h689q31 0 30 -29v-61q0 -31 -30 -31h-584v-484h547q31 0 30 -28v-58q0 -31 -30 -30h-547v-551h608q31 0 31 -29v-61q0 -31 -31 -31h-711q-16 0 -25 6t-9 25v364h-437l-208 -364q-8 -12 -16.5 -21.5t-20.5 -9.5 h-82q-16 0 -24.5 7zM471 512h367v641q-18 -35 -36 -65.5t-34 -59.5z" />
<glyph unicode="&#xc7;" horiz-adv-x="1130" d="M162 283v827q0 61 20.5 115.5t69.5 95.5t132 64.5t210 23.5t210 -23.5t132 -64.5t69.5 -95.5t20.5 -115.5v-104q0 -33 -29 -33h-82q-31 0 -30 33v81q0 45 -14.5 81t-48.5 61.5t-89 40t-137 14.5t-137.5 -14.5t-89 -40t-48 -61t-14.5 -81.5v-782q0 -45 14.5 -81t48 -61.5 t89 -39.5t137.5 -14q162 0 225.5 53t63.5 143v109q0 31 30 30h82q29 0 29 -30v-131q0 -61 -20.5 -115.5t-69.5 -95.5t-132 -64.5t-210 -23.5h-6l-25 -93h76q31 0 61.5 -8t55 -26.5t39 -49t14.5 -75.5t-14.5 -76t-39 -50.5t-55 -28.5t-61.5 -9h-238q-31 0 -30 31v30 q0 29 30 29h217q27 0 57 12.5t30 59.5t-29 59t-58 12h-126q-29 0 -36 10.5t-3 28.5l39 150q-96 8 -160 34.5t-101.5 65.5t-53 88t-15.5 105z" />
<glyph unicode="&#xc8;" d="M186 31v1331q0 31 29 31h698q31 0 31 -31v-64q0 -31 -31 -30h-583v-477h547q31 0 30 -31v-60q0 -31 -30 -30h-547v-545h608q31 0 31 -29v-65q0 -31 -31 -31h-725q-27 0 -27 31zM358.5 1788.5q3.5 9.5 20.5 9.5h90q16 0 24.5 -8t16.5 -21l137 -229q18 -31 -14 -31h-70 q-16 0 -24.5 7.5t-12.5 13.5l-161 237q-10 12 -6.5 21.5z" />
<glyph unicode="&#xc9;" d="M186 31v1331q0 31 29 31h698q31 0 31 -31v-64q0 -31 -31 -30h-583v-477h547q31 0 30 -31v-60q0 -31 -30 -30h-547v-545h608q31 0 31 -29v-65q0 -31 -31 -31h-725q-27 0 -27 31zM494 1540l137 229q8 12 15 20.5t24 8.5h90q16 0 20 -9t-4 -22l-162 -237q-4 -6 -13 -12.5 t-26 -6.5h-67q-31 0 -14 29z" />
<glyph unicode="&#xca;" d="M186 31v1331q0 31 29 31h698q31 0 31 -31v-64q0 -31 -31 -30h-583v-477h547q31 0 30 -31v-60q0 -31 -30 -30h-547v-545h608q31 0 31 -29v-65q0 -31 -31 -31h-725q-27 0 -27 31zM300.5 1519.5q-5.5 8.5 4.5 20.5l158 227q10 12 20.5 21.5t26.5 9.5h53q16 0 26.5 -8 t20.5 -21l158 -229q20 -29 -16 -29h-66q-23 0 -41 29l-108 168l-109 -168q-6 -10 -15.5 -19.5t-25.5 -9.5h-65q-16 0 -21.5 8.5z" />
<glyph unicode="&#xcb;" d="M186 31v1331q0 31 29 31h698q31 0 31 -31v-64q0 -31 -31 -30h-583v-477h547q31 0 30 -31v-60q0 -31 -30 -30h-547v-545h608q31 0 31 -29v-65q0 -31 -31 -31h-725q-27 0 -27 31zM401 1554v199q0 29 31 29h49q29 0 29 -29v-199q0 -31 -29 -30h-49q-31 0 -31 30zM621 1554 v199q0 29 30 29h49q31 0 31 -29v-199q0 -31 -31 -30h-49q-31 0 -30 30z" />
<glyph unicode="&#xcc;" horiz-adv-x="516" d="M16.5 1788.5q3.5 9.5 20.5 9.5h90q16 0 24.5 -8t16.5 -21l137 -229q18 -31 -14 -31h-70q-16 0 -24.5 7.5t-12.5 13.5l-161 237q-10 12 -6.5 21.5zM186 31v1331q0 31 29 31h86q29 0 29 -31v-1331q0 -31 -29 -31h-86q-29 0 -29 31z" />
<glyph unicode="&#xcd;" horiz-adv-x="516" d="M186 31v1331q0 31 29 31h86q29 0 29 -31v-1331q0 -31 -29 -31h-86q-29 0 -29 31zM203 1540l137 229q8 12 15 20.5t24 8.5h90q16 0 20.5 -9t-4.5 -22l-161 -237q-4 -6 -13.5 -12.5t-25.5 -6.5h-68q-31 0 -14 29z" />
<glyph unicode="&#xce;" horiz-adv-x="516" d="M21.5 1519.5q-5.5 8.5 5.5 20.5l157 227q10 12 20.5 21.5t26.5 9.5h54q16 0 26.5 -8t20.5 -21l157 -229q20 -29 -16 -29h-65q-23 0 -41 29l-109 168l-108 -168q-6 -10 -15.5 -19.5t-25.5 -9.5h-66q-16 0 -21.5 8.5zM186 31v1331q0 31 29 31h86q29 0 29 -31v-1331 q0 -31 -29 -31h-86q-29 0 -29 31z" />
<glyph unicode="&#xcf;" horiz-adv-x="516" d="M94 1554v199q0 29 31 29h49q29 0 29 -29v-199q0 -31 -29 -30h-49q-31 0 -31 30zM186 31v1331q0 31 29 31h86q29 0 29 -31v-1331q0 -31 -29 -31h-86q-29 0 -29 31zM313 1554v199q0 29 31 29h49q31 0 31 -29v-199q0 -31 -31 -30h-49q-31 0 -31 30z" />
<glyph unicode="&#xd0;" horiz-adv-x="1232" d="M20 678v53q0 29 31 29h135v602q0 31 27 31h414q127 0 212 -23.5t137 -64.5t73.5 -95.5t21.5 -115.5v-795q0 -61 -21.5 -115.5t-73.5 -95.5t-137 -64.5t-212 -23.5h-416q-25 0 -25 31v618h-135q-31 0 -31 29zM330 125h297q164 0 231.5 53t67.5 144v749q0 88 -67.5 142.5 t-231.5 54.5h-297v-508h270q31 0 31 -29v-53q0 -29 -31 -29h-270v-524z" />
<glyph unicode="&#xd1;" horiz-adv-x="1255" d="M184 31v1331q0 31 31 31h78q18 0 24 -13l555 -977q6 -10 16.5 -30.5t20.5 -40.5q10 -23 25 -51v1081q0 31 29 31h77q29 0 29 -31v-1331q0 -31 -29 -31h-77q-20 0 -29 14l-543 963q-35 57 -51 91t-18 40v-1077q0 -31 -29 -31h-78q-31 0 -31 31zM332 1571l4 55q6 92 47 127 t100 35q57 0 113 -39l90 -66q18 -14 40 -25t38 -11q35 0 43 20.5t10 77.5v16q0 27 33 27h45q27 0 27 -33l-2 -51q-4 -92 -47.5 -129t-102.5 -37q-23 0 -52.5 9t-58.5 28l-92 65q-18 14 -38.5 25.5t-36.5 11.5q-35 0 -44.5 -20.5t-11.5 -75.5v-16q0 -29 -30 -29h-48 q-20 0 -23 12.5t-3 22.5z" />
<glyph unicode="&#xd2;" horiz-adv-x="1210" d="M162 283v827q0 61 21.5 115.5t73.5 95.5t136 64.5t211 23.5t213 -23.5t137.5 -64.5t73 -95.5t21.5 -115.5v-827q0 -61 -21.5 -115.5t-73 -95.5t-137.5 -64.5t-213 -23.5t-211 23.5t-136 64.5t-73.5 95t-21.5 116zM307 305q0 -90 67.5 -143t229.5 -53q164 0 231.5 53 t67.5 143v782q0 90 -67.5 143.5t-231.5 53.5q-162 0 -229.5 -53t-67.5 -144v-782zM365 1788.5q4 9.5 20 9.5h90q16 0 24.5 -8t16.5 -21l137 -229q18 -31 -14 -31h-70q-16 0 -24 7.5t-13 13.5l-161 237q-10 12 -6 21.5z" />
<glyph unicode="&#xd3;" horiz-adv-x="1210" d="M162 283v827q0 61 21.5 115.5t73.5 95.5t136 64.5t211 23.5t213 -23.5t137.5 -64.5t73 -95.5t21.5 -115.5v-827q0 -61 -21.5 -115.5t-73 -95.5t-137.5 -64.5t-213 -23.5t-211 23.5t-136 64.5t-73.5 95t-21.5 116zM307 305q0 -90 67.5 -143t229.5 -53q164 0 231.5 53 t67.5 143v782q0 90 -67.5 143.5t-231.5 53.5q-162 0 -229.5 -53t-67.5 -144v-782zM535 1540l137 229q8 12 15 20.5t24 8.5h90q16 0 20 -9t-4 -22l-162 -237q-4 -6 -13 -12.5t-26 -6.5h-67q-31 0 -14 29z" />
<glyph unicode="&#xd4;" horiz-adv-x="1210" d="M162 283v827q0 61 21.5 115.5t73.5 95.5t136 64.5t211 23.5t213 -23.5t137.5 -64.5t73 -95.5t21.5 -115.5v-827q0 -61 -21.5 -115.5t-73 -95.5t-137.5 -64.5t-213 -23.5t-211 23.5t-136 64.5t-73.5 95t-21.5 116zM307 305q0 -90 67.5 -143t229.5 -53q164 0 231.5 53 t67.5 143v782q0 90 -67.5 143.5t-231.5 53.5q-162 0 -229.5 -53t-67.5 -144v-782zM367.5 1519.5q-5.5 8.5 5.5 20.5l157 227q10 12 20.5 21.5t27.5 9.5h53q16 0 26.5 -8t20.5 -21l158 -229q20 -29 -17 -29h-65q-23 0 -41 29l-109 168l-108 -168q-6 -10 -15.5 -19.5 t-25.5 -9.5h-66q-16 0 -21.5 8.5z" />
<glyph unicode="&#xd5;" horiz-adv-x="1210" d="M162 283v827q0 61 21.5 115.5t73.5 95.5t136 64.5t211 23.5t213 -23.5t137.5 -64.5t73 -95.5t21.5 -115.5v-827q0 -61 -21.5 -115.5t-73 -95.5t-137.5 -64.5t-213 -23.5t-211 23.5t-136 64.5t-73.5 95t-21.5 116zM307 305q0 -90 67.5 -143t229.5 -53q164 0 231.5 53 t67.5 143v782q0 90 -67.5 143.5t-231.5 53.5q-162 0 -229.5 -53t-67.5 -144v-782zM309 1571l4 55q6 92 47 127t101 35q57 0 112 -39l91 -66q18 -14 39.5 -25t37.5 -11q35 0 43.5 20.5t10.5 77.5v16q0 27 32 27h45q27 0 27 -33l-2 -51q-4 -92 -47 -129t-102 -37 q-23 0 -52.5 9t-58.5 28l-92 65q-18 14 -39 25.5t-37 11.5q-35 0 -44 -20.5t-11 -75.5v-16q0 -29 -31 -29h-47q-20 0 -23.5 12.5t-3.5 22.5z" />
<glyph unicode="&#xd6;" horiz-adv-x="1210" d="M162 283v827q0 61 21.5 115.5t73.5 95.5t136 64.5t211 23.5t213 -23.5t137.5 -64.5t73 -95.5t21.5 -115.5v-827q0 -61 -21.5 -115.5t-73 -95.5t-137.5 -64.5t-213 -23.5t-211 23.5t-136 64.5t-73.5 95t-21.5 116zM307 305q0 -90 67.5 -143t229.5 -53q164 0 231.5 53 t67.5 143v782q0 90 -67.5 143.5t-231.5 53.5q-162 0 -229.5 -53t-67.5 -144v-782zM440 1554v199q0 29 31 29h49q29 0 29 -29v-199q0 -31 -29 -30h-49q-31 0 -31 30zM659 1554v199q0 29 31 29h49q31 0 31 -29v-199q0 -31 -31 -30h-49q-31 0 -31 30z" />
<glyph unicode="&#xd7;" horiz-adv-x="1114" d="M170 506q-14 27 10 41l295 168l-172 297q-14 27 10 41l52 30q25 14 41 -12l172 -295l296 170q14 8 21.5 6t17.5 -16l31 -51q14 -27 -12 -43l-295 -172l170 -293q12 -25 -12 -41l-52 -31q-25 -14 -38 12l-170 293l-295 -170q-27 -16 -43 13z" />
<glyph unicode="&#xd8;" horiz-adv-x="1210" d="M162 281v825q0 61 21.5 115.5t73.5 95.5t136 64.5t211 23.5q96 0 167 -14.5t122 -36.5l25 49q6 12 17 28.5t34 16.5h26q23 0 20 -14.5t-11 -30.5l-46 -90q49 -41 70 -94.5t21 -112.5v-825q0 -61 -21.5 -115.5t-73 -96.5t-137.5 -65.5t-213 -23.5q-98 0 -170 14t-123 39 l-24 -47q-10 -16 -20.5 -30.5t-28.5 -14.5h-27q-16 0 -18.5 13t8.5 32l45 90q-47 41 -65.5 93t-18.5 112zM307 303q0 -47 15 -78l507 1006q-74 51 -225 51q-162 0 -229.5 -54t-67.5 -145v-780zM375 160q35 -27 91 -41.5t138 -14.5q164 0 231.5 54.5t67.5 144.5v780 q0 47 -18 84z" />
<glyph unicode="&#xd9;" horiz-adv-x="1232" d="M174 283v1079q0 31 29 31h88q29 0 28 -31v-1057q0 -90 67 -143t228 -53q164 0 232.5 53t68.5 143v1057q0 31 29 31h86q29 0 29 -31v-1079q0 -61 -21.5 -115.5t-73 -95.5t-137.5 -64.5t-213 -23.5t-211 23.5t-135 64.5t-72.5 95t-21.5 116zM385 1788.5q4 9.5 21 9.5h90 q16 0 24 -8t17 -21l137 -229q18 -31 -15 -31h-69q-16 0 -24.5 7.5t-12.5 13.5l-162 237q-10 12 -6 21.5z" />
<glyph unicode="&#xda;" horiz-adv-x="1232" d="M174 283v1079q0 31 29 31h88q29 0 28 -31v-1057q0 -90 67 -143t228 -53q164 0 232.5 53t68.5 143v1057q0 31 29 31h86q29 0 29 -31v-1079q0 -61 -21.5 -115.5t-73 -95.5t-137.5 -64.5t-213 -23.5t-211 23.5t-135 64.5t-72.5 95t-21.5 116zM559 1540l137 229 q8 12 15.5 20.5t23.5 8.5h90q16 0 20.5 -9t-3.5 -22l-162 -237q-4 -6 -13.5 -12.5t-25.5 -6.5h-68q-31 0 -14 29z" />
<glyph unicode="&#xdb;" horiz-adv-x="1232" d="M174 283v1079q0 31 29 31h88q29 0 28 -31v-1057q0 -90 67 -143t228 -53q164 0 232.5 53t68.5 143v1057q0 31 29 31h86q29 0 29 -31v-1079q0 -61 -21.5 -115.5t-73 -95.5t-137.5 -64.5t-213 -23.5t-211 23.5t-135 64.5t-72.5 95t-21.5 116zM380 1519.5q-5 8.5 5 20.5 l158 227q10 12 20 21.5t27 9.5h53q16 0 26.5 -8t20.5 -21l158 -229q20 -29 -17 -29h-65q-23 0 -41 29l-109 168l-108 -168q-6 -10 -15.5 -19.5t-25.5 -9.5h-66q-16 0 -21 8.5z" />
<glyph unicode="&#xdc;" horiz-adv-x="1232" d="M174 283v1079q0 31 29 31h88q29 0 28 -31v-1057q0 -90 67 -143t228 -53q164 0 232.5 53t68.5 143v1057q0 31 29 31h86q29 0 29 -31v-1079q0 -61 -21.5 -115.5t-73 -95.5t-137.5 -64.5t-213 -23.5t-211 23.5t-135 64.5t-72.5 95t-21.5 116zM453 1554v199q0 29 30 29h49 q29 0 29 -29v-199q0 -31 -29 -30h-49q-31 0 -30 30zM672 1554v199q0 29 30 29h50q31 0 30 -29v-199q0 -31 -30 -30h-50q-31 0 -30 30z" />
<glyph unicode="&#xdd;" horiz-adv-x="1058" d="M41 1385.5q6 7.5 22 7.5h99q16 0 23.5 -8.5t13.5 -22.5l301 -594q14 -29 21 -51.5t9 -26.5q0 4 10.5 32t20.5 46l311 594q6 12 13.5 21.5t23.5 9.5h86q35 0 21 -31l-412 -795v-536q0 -31 -31 -31h-86q-31 0 -30 31v520l-414 811q-8 16 -2 23.5zM489 1540l138 229 q8 12 15 20.5t24 8.5h90q16 0 20 -9t-4 -22l-162 -237q-4 -6 -13 -12.5t-26 -6.5h-67q-31 0 -15 29z" />
<glyph unicode="&#xde;" horiz-adv-x="1159" d="M184 31v1331q0 31 31 31h86q29 0 29 -31v-350h288q127 0 213.5 -23.5t137.5 -64.5t72.5 -95.5t21.5 -115.5v-209q0 -61 -21.5 -114.5t-72.5 -94.5t-137.5 -64.5t-213.5 -23.5h-288v-176q0 -31 -29 -31h-86q-31 0 -31 31zM330 328h288q164 0 232 54t68 144v164 q0 90 -68 144.5t-232 54.5h-288v-561z" />
<glyph unicode="&#xdf;" horiz-adv-x="1234" d="M57 922v49q0 29 29 30l111 7h16v178q0 57 21.5 105t68.5 84t123 55.5t186 19.5q111 0 186.5 -19.5t123 -54.5t68 -83t20.5 -107v-76q0 -41 -15.5 -71.5t-39 -51t-51 -34t-50.5 -21.5l-129 -41q-35 -10 -71 -27.5t-36 -62.5v-10q0 -27 13.5 -46.5t31 -34t36 -22.5 t30.5 -12l244 -94q23 -8 54.5 -24.5t61 -41t51 -60.5t21.5 -81v-131q0 -57 -15.5 -104.5t-54 -82t-105 -54t-167.5 -19.5q-100 0 -163.5 18t-100.5 51t-50 80t-13 107v20q0 33 28 33h60q29 0 28 -33v-24q0 -35 9.5 -64t33 -48.5t64.5 -30.5t104 -11t104.5 11t65 31.5 t32.5 48.5t9 63v114q0 31 -13 50.5t-32.5 32.5t-42 22.5t-39.5 15.5l-233 92q-25 10 -55.5 25.5t-56.5 39t-43 59.5t-17 85v33q0 41 16 70.5t38.5 49t49.5 33t49 19.5l113 35q16 4 35.5 12t37 22.5t30 35t12.5 48.5v46q0 72 -57.5 116.5t-203.5 44.5q-147 0 -204.5 -45 t-57.5 -116v-1145q0 -31 -30 -31h-82q-31 0 -31 31v860h-127q-29 0 -29 31z" />
<glyph unicode="&#xe0;" horiz-adv-x="1034" d="M127 225v103q0 100 66.5 170.5t199.5 70.5h352v185q0 35 -10 63.5t-36.5 50t-71.5 32.5t-113 11t-113 -11t-71.5 -30.5t-37.5 -48t-11 -63.5v-25q0 -33 -31 -33h-74q-29 0 -29 33v35q0 57 18.5 105.5t61.5 82t114 53t175 19.5t175 -19.5t114 -53t61.5 -82t18.5 -105.5 v-737q0 -31 -29 -31h-74q-29 0 -30 31l-4 73q-23 -18 -56 -38.5t-75 -39t-94 -30.5t-113 -12q-143 0 -213 70.5t-70 170.5zM264 244q0 -68 43 -105t135 -37q55 0 103.5 12.5t86.5 31t66.5 38t46.5 33.5v240h-325q-84 0 -120 -40t-36 -108v-65zM322 1440.5q4 9.5 20 9.5h90 q16 0 24.5 -8t16.5 -21l137 -229q10 -14 4 -21.5t-18 -7.5h-70q-16 0 -24 6.5t-13 12.5l-161 237q-10 12 -6 21.5z" />
<glyph unicode="&#xe1;" horiz-adv-x="1034" d="M127 225v103q0 100 66.5 170.5t199.5 70.5h352v185q0 35 -10 63.5t-36.5 50t-71.5 32.5t-113 11t-113 -11t-71.5 -30.5t-37.5 -48t-11 -63.5v-25q0 -33 -31 -33h-74q-29 0 -29 33v35q0 57 18.5 105.5t61.5 82t114 53t175 19.5t175 -19.5t114 -53t61.5 -82t18.5 -105.5 v-737q0 -31 -29 -31h-74q-29 0 -30 31l-4 73q-23 -18 -56 -38.5t-75 -39t-94 -30.5t-113 -12q-143 0 -213 70.5t-70 170.5zM264 244q0 -68 43 -105t135 -37q55 0 103.5 12.5t86.5 31t66.5 38t46.5 33.5v240h-325q-84 0 -120 -40t-36 -108v-65zM416 1170.5q-6 7.5 4 21.5 l137 229q8 12 16.5 20.5t24.5 8.5h90q16 0 20.5 -9t-6.5 -22l-161 -237q-4 -6 -12.5 -12.5t-24.5 -6.5h-68q-14 0 -20 7.5z" />
<glyph unicode="&#xe2;" horiz-adv-x="1034" d="M127 225v103q0 100 66.5 170.5t199.5 70.5h352v185q0 35 -10 63.5t-36.5 50t-71.5 32.5t-113 11t-113 -11t-71.5 -30.5t-37.5 -48t-11 -63.5v-25q0 -33 -31 -33h-74q-29 0 -29 33v35q0 57 18.5 105.5t61.5 82t114 53t175 19.5t175 -19.5t114 -53t61.5 -82t18.5 -105.5 v-737q0 -31 -29 -31h-74q-29 0 -30 31l-4 73q-23 -18 -56 -38.5t-75 -39t-94 -30.5t-113 -12q-143 0 -213 70.5t-70 170.5zM264 244q0 -68 43 -105t135 -37q55 0 103.5 12.5t86.5 31t66.5 38t46.5 33.5v240h-325q-84 0 -120 -40t-36 -108v-65zM281.5 1171.5 q-5.5 8.5 5.5 20.5l155 227q10 12 20.5 21.5t26.5 9.5h54q16 0 26.5 -8t20.5 -21l160 -229q18 -29 -17 -29h-65q-23 0 -41 29l-109 168l-108 -168q-6 -10 -16.5 -19.5t-24.5 -9.5h-66q-16 0 -21.5 8.5z" />
<glyph unicode="&#xe3;" horiz-adv-x="1034" d="M127 225v103q0 100 66.5 170.5t199.5 70.5h352v185q0 35 -10 63.5t-36.5 50t-71.5 32.5t-113 11t-113 -11t-71.5 -30.5t-37.5 -48t-11 -63.5v-25q0 -33 -31 -33h-74q-29 0 -29 33v35q0 57 18.5 105.5t61.5 82t114 53t175 19.5t175 -19.5t114 -53t61.5 -82t18.5 -105.5 v-737q0 -31 -29 -31h-74q-29 0 -30 31l-4 73q-23 -18 -56 -38.5t-75 -39t-94 -30.5t-113 -12q-143 0 -213 70.5t-70 170.5zM223 1210l4 56q6 92 47 126.5t101 34.5q57 0 112 -38l91 -66q18 -14 39.5 -25.5t37.5 -11.5q35 0 43.5 20.5t10.5 77.5v17q0 27 32 26h45 q27 0 27 -32l-2 -52q-4 -92 -47 -128.5t-102 -36.5q-23 0 -52.5 9t-58.5 27l-92 66q-18 14 -39 25.5t-37 11.5q-35 0 -44 -20.5t-11 -75.5v-17q0 -29 -31 -28h-47q-20 0 -23.5 12t-3.5 22zM264 244q0 -68 43 -105t135 -37q55 0 103.5 12.5t86.5 31t66.5 38t46.5 33.5v240 h-325q-84 0 -120 -40t-36 -108v-65z" />
<glyph unicode="&#xe4;" horiz-adv-x="1034" d="M127 225v103q0 100 66.5 170.5t199.5 70.5h352v185q0 35 -10 63.5t-36.5 50t-71.5 32.5t-113 11t-113 -11t-71.5 -30.5t-37.5 -48t-11 -63.5v-25q0 -33 -31 -33h-74q-29 0 -29 33v35q0 57 18.5 105.5t61.5 82t114 53t175 19.5t175 -19.5t114 -53t61.5 -82t18.5 -105.5 v-737q0 -31 -29 -31h-74q-29 0 -30 31l-4 73q-23 -18 -56 -38.5t-75 -39t-94 -30.5t-113 -12q-143 0 -213 70.5t-70 170.5zM264 244q0 -68 43 -105t135 -37q55 0 103.5 12.5t86.5 31t66.5 38t46.5 33.5v240h-325q-84 0 -120 -40t-36 -108v-65zM350 1210v199q0 31 31 31h51 q29 0 29 -31v-199q0 -29 -29 -28h-51q-31 0 -31 28zM571 1210v199q0 31 29 31h51q29 0 29 -31v-199q0 -29 -29 -28h-51q-29 0 -29 28z" />
<glyph unicode="&#xe5;" horiz-adv-x="1034" d="M127 225v103q0 100 66.5 170.5t199.5 70.5h352v185q0 35 -10 63.5t-36.5 50t-71.5 32.5t-113 11t-113 -11t-71.5 -30.5t-37.5 -48t-11 -63.5v-25q0 -33 -31 -33h-74q-29 0 -29 33v35q0 57 18.5 105.5t61.5 82t114 53t175 19.5t175 -19.5t114 -53t61.5 -82t18.5 -105.5 v-737q0 -31 -29 -31h-74q-29 0 -30 31l-4 73q-23 -18 -56 -38.5t-75 -39t-94 -30.5t-113 -12q-143 0 -213 70.5t-70 170.5zM264 244q0 -68 43 -105t135 -37q55 0 103.5 12.5t86.5 31t66.5 38t46.5 33.5v240h-325q-84 0 -120 -40t-36 -108v-65zM332 1278v51q0 63 45 104.5 t143 41.5q100 0 145.5 -41t45.5 -105v-51q0 -63 -45 -103t-146 -40q-98 0 -143 39.5t-45 103.5zM414 1292q0 -37 23.5 -60.5t82.5 -23.5q57 0 82 23.5t25 60.5v23q0 37 -24.5 60.5t-82.5 23.5q-59 0 -82.5 -23.5t-23.5 -60.5v-23z" />
<glyph unicode="&#xe6;" horiz-adv-x="1613" d="M125 225v86q0 102 68.5 172t199.5 70h350v219q0 66 -50 108t-181 42q-68 0 -113 -11.5t-71.5 -32t-37.5 -49t-11 -65.5v-31q0 -31 -29 -31h-74q-31 0 -31 31v35q0 57 18.5 105.5t62.5 83t115 53t175 18.5q129 0 198.5 -31.5t98.5 -85.5q35 51 106.5 84t200.5 33 q104 0 176 -19.5t116 -54t62.5 -83t18.5 -107.5v-246q0 -29 -29 -29h-581v-243q0 -72 50 -113t187 -41t188.5 44t51.5 116v37q0 31 29 30h71q29 0 29 -30v-43q0 -59 -18.5 -107.5t-61.5 -82t-113.5 -53t-175.5 -19.5q-154 0 -234.5 37.5t-111.5 103.5q-25 -18 -59.5 -43 t-80.5 -46.5t-102.5 -36.5t-121.5 -15q-147 0 -216 70.5t-69 170.5zM264 242q0 -66 45 -106t133 -40q55 0 102.5 15.5t86.5 36t66.5 43t45.5 36.5v226h-327q-78 0 -115 -42t-37 -106v-63zM883 590h477v170q0 35 -11.5 64.5t-39 51t-73.5 33t-116 11.5q-137 0 -187 -45.5 t-50 -114.5v-170z" />
<glyph unicode="&#xe7;" horiz-adv-x="980" d="M139 248v516q0 59 18.5 107.5t62.5 83t116 54t176 19.5t176 -19.5t116 -54t62.5 -83t18.5 -107.5v-39q0 -31 -31 -31h-76q-31 0 -30 31v31q0 35 -11.5 63.5t-38 49t-71.5 31.5t-113 11t-113 -11t-71.5 -31.5t-37.5 -49t-11 -63.5v-498q0 -37 11 -65.5t37.5 -49t71.5 -32 t113 -11.5t113 11.5t71.5 32t38 49t11.5 65.5v45q0 31 30 31h76q31 0 31 -31v-55q0 -59 -19.5 -107.5t-63.5 -83t-116 -54t-176 -19.5h-8l-25 -93h76q31 0 61.5 -8t55 -26.5t39 -49t14.5 -75.5t-14.5 -76t-39 -50.5t-55 -28.5t-61.5 -9h-238q-31 0 -30 31v30q0 29 30 29h217 q27 0 56.5 12.5t29.5 59.5t-28.5 59t-57.5 12h-126q-29 0 -36.5 10.5t-2.5 28.5l39 150q-150 16 -208.5 85.5t-58.5 172.5z" />
<glyph unicode="&#xe8;" horiz-adv-x="1007" d="M139 248v516q0 59 19.5 107.5t63.5 83t116 54t178 19.5q104 0 176 -19.5t115 -54t61.5 -83t18.5 -107.5v-252q0 -29 -29 -29h-579v-227q0 -35 10 -64.5t37.5 -50t72.5 -32t117 -11.5q70 0 116 11.5t73.5 32t38 50t10.5 64.5v35q0 29 28 28h74q31 0 31 -28v-43 q0 -59 -18.5 -107.5t-62.5 -83t-116 -54t-178 -19.5q-104 0 -176 19.5t-116 54t-62.5 82.5t-18.5 108zM279 592h475v164q0 70 -51.5 113.5t-186.5 43.5q-70 0 -115 -11t-72.5 -32.5t-38.5 -50t-11 -63.5v-164zM291 1440.5q4 9.5 20 9.5h90q16 0 24.5 -8t16.5 -21l138 -229 q10 -14 4 -21.5t-19 -7.5h-69q-16 0 -24.5 6.5t-12.5 12.5l-162 237q-10 12 -6 21.5z" />
<glyph unicode="&#xe9;" horiz-adv-x="1007" d="M139 248v516q0 59 19.5 107.5t63.5 83t116 54t178 19.5q104 0 176 -19.5t115 -54t61.5 -83t18.5 -107.5v-252q0 -29 -29 -29h-579v-227q0 -35 10 -64.5t37.5 -50t72.5 -32t117 -11.5q70 0 116 11.5t73.5 32t38 50t10.5 64.5v35q0 29 28 28h74q31 0 31 -28v-43 q0 -59 -18.5 -107.5t-62.5 -83t-116 -54t-178 -19.5q-104 0 -176 19.5t-116 54t-62.5 82.5t-18.5 108zM279 592h475v164q0 70 -51.5 113.5t-186.5 43.5q-70 0 -115 -11t-72.5 -32.5t-38.5 -50t-11 -63.5v-164zM430.5 1170.5q-6.5 7.5 3.5 21.5l137 229q8 12 16.5 20.5 t24.5 8.5h90q16 0 20.5 -9t-5.5 -22l-162 -237q-4 -6 -12 -12.5t-25 -6.5h-67q-14 0 -20.5 7.5z" />
<glyph unicode="&#xea;" horiz-adv-x="1007" d="M139 248v516q0 59 19.5 107.5t63.5 83t116 54t178 19.5q104 0 176 -19.5t115 -54t61.5 -83t18.5 -107.5v-252q0 -29 -29 -29h-579v-227q0 -35 10 -64.5t37.5 -50t72.5 -32t117 -11.5q70 0 116 11.5t73.5 32t38 50t10.5 64.5v35q0 29 28 28h74q31 0 31 -28v-43 q0 -59 -18.5 -107.5t-62.5 -83t-116 -54t-178 -19.5q-104 0 -176 19.5t-116 54t-62.5 82.5t-18.5 108zM279 592h475v164q0 70 -51.5 113.5t-186.5 43.5q-70 0 -115 -11t-72.5 -32.5t-38.5 -50t-11 -63.5v-164zM279.5 1171.5q-5.5 8.5 5.5 20.5l155 227q10 12 20.5 21.5 t26.5 9.5h54q16 0 26.5 -8t20.5 -21l160 -229q18 -29 -17 -29h-65q-23 0 -41 29l-109 168l-108 -168q-6 -10 -16.5 -19.5t-24.5 -9.5h-66q-16 0 -21.5 8.5z" />
<glyph unicode="&#xeb;" horiz-adv-x="1007" d="M139 248v516q0 59 19.5 107.5t63.5 83t116 54t178 19.5q104 0 176 -19.5t115 -54t61.5 -83t18.5 -107.5v-252q0 -29 -29 -29h-579v-227q0 -35 10 -64.5t37.5 -50t72.5 -32t117 -11.5q70 0 116 11.5t73.5 32t38 50t10.5 64.5v35q0 29 28 28h74q31 0 31 -28v-43 q0 -59 -18.5 -107.5t-62.5 -83t-116 -54t-178 -19.5q-104 0 -176 19.5t-116 54t-62.5 82.5t-18.5 108zM279 592h475v164q0 70 -51.5 113.5t-186.5 43.5q-70 0 -115 -11t-72.5 -32.5t-38.5 -50t-11 -63.5v-164zM348 1210v199q0 31 31 31h51q29 0 29 -31v-199q0 -29 -29 -28 h-51q-31 0 -31 28zM569 1210v199q0 31 29 31h51q29 0 29 -31v-199q0 -29 -29 -28h-51q-29 0 -29 28z" />
<glyph unicode="&#xec;" horiz-adv-x="464" d="M-6 1440.5q4 9.5 20 9.5h90q16 0 24.5 -8t16.5 -21l138 -229q10 -14 4 -21.5t-19 -7.5h-69q-16 0 -24.5 6.5t-12.5 12.5l-162 237q-10 12 -6 21.5zM162 31v950q0 31 28 31h84q29 0 29 -31v-950q0 -31 -29 -31h-84q-29 0 -28 31z" />
<glyph unicode="&#xed;" horiz-adv-x="464" d="M162 31v950q0 31 28 31h84q29 0 29 -31v-950q0 -31 -29 -31h-84q-29 0 -28 31zM172.5 1170.5q-6.5 7.5 3.5 21.5l137 229q8 12 16.5 20.5t24.5 8.5h90q16 0 20.5 -9t-5.5 -22l-162 -237q-4 -6 -12.5 -12.5t-24.5 -6.5h-67q-14 0 -20.5 7.5z" />
<glyph unicode="&#xee;" horiz-adv-x="464" d="M-1 1171.5q-5 8.5 5 20.5l156 227q10 12 20 21.5t27 9.5h53q16 0 26.5 -8t20.5 -21l160 -229q18 -29 -16 -29h-66q-23 0 -41 29l-108 168l-109 -168q-6 -10 -16.5 -19.5t-24.5 -9.5h-66q-16 0 -21 8.5zM162 31v950q0 31 28 31h84q29 0 29 -31v-950q0 -31 -29 -31h-84 q-29 0 -28 31z" />
<glyph unicode="&#xef;" horiz-adv-x="464" d="M70 1210v199q0 31 30 31h52q29 0 28 -31v-199q0 -29 -28 -28h-52q-31 0 -30 28zM162 31v950q0 31 28 31h84q29 0 29 -31v-950q0 -31 -29 -31h-84q-29 0 -28 31zM291 1210v199q0 31 28 31h52q29 0 28 -31v-199q0 -29 -28 -28h-52q-29 0 -28 28z" />
<glyph unicode="&#xf0;" horiz-adv-x="1136" d="M139 246v520q0 117 68.5 189.5t216.5 72.5q63 0 116.5 -12t96.5 -30.5t77 -40t56 -40.5v256q0 37 -16 66l-148 -64q-27 -12 -41 11l-10 18q-14 25 12 39l154 67q-27 23 -73 36.5t-120 13.5h-182q-31 0 -31 30v41q0 31 31 31h182q117 0 192 -23.5t116 -64.5l106 49 q27 10 39 -10l12 -21q14 -27 -14 -39l-96 -45q20 -43 20 -108v-942q0 -59 -19.5 -107.5t-64.5 -82t-116.5 -53t-178.5 -19.5q-104 0 -178 19.5t-120 53t-66.5 81.5t-20.5 108zM281 256q0 -72 54 -115t189 -43q137 0 191.5 43t54.5 115v530q-16 14 -46 35t-69 39.5t-88 31.5 t-104 13q-100 0 -141 -46t-41 -111v-492z" />
<glyph unicode="&#xf1;" horiz-adv-x="1085" d="M162 31v950q0 31 31 31h73q16 0 22.5 -7.5t8.5 -23.5l4 -78q20 18 54 40t78 41.5t98.5 31.5t119.5 12q143 0 213 -70.5t70 -181.5v-745q0 -31 -29 -31h-82q-31 0 -30 31v714q0 70 -41 113t-140 43q-57 0 -105 -12t-88 -30.5t-68.5 -38t-47.5 -34.5v-755q0 -31 -29 -31 h-81q-31 0 -31 31zM242 1219l4 55q6 92 47 127t100 35q57 0 113 -39l90 -66q18 -14 39.5 -25.5t38.5 -11.5q35 0 43 20.5t10 78.5v16q0 27 33 27h45q27 0 26 -33l-2 -51q-4 -92 -47 -129t-102 -37q-23 0 -52.5 9t-58.5 28l-92 65q-18 14 -39 25.5t-37 11.5q-35 0 -44 -20.5 t-11 -75.5v-17q0 -29 -31 -28h-47q-20 0 -23 12t-3 23z" />
<glyph unicode="&#xf2;" horiz-adv-x="1050" d="M139 248v516q0 59 20.5 107.5t66.5 83t120 54t178 19.5t178 -19.5t120 -54t67.5 -83t21.5 -107.5v-516q0 -59 -21.5 -107.5t-67.5 -83t-119.5 -54t-178.5 -19.5q-104 0 -178 19.5t-120 54t-66.5 82.5t-20.5 108zM281 258q0 -72 54 -115t189 -43q137 0 191.5 43t54.5 115 v496q0 72 -54 114.5t-192 42.5q-135 0 -189 -43t-54 -114v-496zM297 1440.5q4 9.5 20 9.5h91q16 0 24 -8t17 -21l137 -229q10 -14 4 -21.5t-19 -7.5h-69q-16 0 -24.5 6.5t-12.5 12.5l-162 237q-10 12 -6 21.5z" />
<glyph unicode="&#xf3;" horiz-adv-x="1050" d="M139 248v516q0 59 20.5 107.5t66.5 83t120 54t178 19.5t178 -19.5t120 -54t67.5 -83t21.5 -107.5v-516q0 -59 -21.5 -107.5t-67.5 -83t-119.5 -54t-178.5 -19.5q-104 0 -178 19.5t-120 54t-66.5 82.5t-20.5 108zM281 258q0 -72 54 -115t189 -43q137 0 191.5 43t54.5 115 v496q0 72 -54 114.5t-192 42.5q-135 0 -189 -43t-54 -114v-496zM457 1170.5q-6 7.5 4 21.5l137 229q8 12 16.5 20.5t24.5 8.5h90q16 0 20.5 -9t-6.5 -22l-161 -237q-4 -6 -12.5 -12.5t-24.5 -6.5h-68q-14 0 -20 7.5z" />
<glyph unicode="&#xf4;" horiz-adv-x="1050" d="M139 248v516q0 59 20.5 107.5t66.5 83t120 54t178 19.5t178 -19.5t120 -54t67.5 -83t21.5 -107.5v-516q0 -59 -21.5 -107.5t-67.5 -83t-119.5 -54t-178.5 -19.5q-104 0 -178 19.5t-120 54t-66.5 82.5t-20.5 108zM281 258q0 -72 54 -115t189 -43q137 0 191.5 43t54.5 115 v496q0 72 -54 114.5t-192 42.5q-135 0 -189 -43t-54 -114v-496zM290 1171.5q-5 8.5 5 20.5l156 227q10 12 20 21.5t27 9.5h53q16 0 26.5 -8t20.5 -21l160 -229q18 -29 -17 -29h-65q-23 0 -41 29l-109 168l-108 -168q-6 -10 -16.5 -19.5t-24.5 -9.5h-66q-16 0 -21 8.5z" />
<glyph unicode="&#xf5;" horiz-adv-x="1050" d="M139 248v516q0 59 20.5 107.5t66.5 83t120 54t178 19.5t178 -19.5t120 -54t67.5 -83t21.5 -107.5v-516q0 -59 -21.5 -107.5t-67.5 -83t-119.5 -54t-178.5 -19.5q-104 0 -178 19.5t-120 54t-66.5 82.5t-20.5 108zM231 1210l5 56q6 92 47 126.5t100 34.5q57 0 113 -38 l90 -66q18 -14 39.5 -25.5t38.5 -11.5q35 0 43 20.5t10 77.5v17q0 27 33 26h45q27 0 26 -32l-2 -52q-4 -92 -47 -128.5t-102 -36.5q-23 0 -52.5 9t-58.5 27l-92 66q-18 14 -39 25.5t-37 11.5q-35 0 -44 -20.5t-11 -75.5v-17q0 -29 -31 -28h-47q-20 0 -23.5 12t-3.5 22z M281 258q0 -72 54 -115t189 -43q137 0 191.5 43t54.5 115v496q0 72 -54 114.5t-192 42.5q-135 0 -189 -43t-54 -114v-496z" />
<glyph unicode="&#xf6;" horiz-adv-x="1050" d="M139 248v516q0 59 20.5 107.5t66.5 83t120 54t178 19.5t178 -19.5t120 -54t67.5 -83t21.5 -107.5v-516q0 -59 -21.5 -107.5t-67.5 -83t-119.5 -54t-178.5 -19.5q-104 0 -178 19.5t-120 54t-66.5 82.5t-20.5 108zM281 258q0 -72 54 -115t189 -43q137 0 191.5 43t54.5 115 v496q0 72 -54 114.5t-192 42.5q-135 0 -189 -43t-54 -114v-496zM360 1210v199q0 31 31 31h51q29 0 29 -31v-199q0 -29 -29 -28h-51q-31 0 -31 28zM582 1210v199q0 31 28 31h52q29 0 28 -31v-199q0 -29 -28 -28h-52q-29 0 -28 28z" />
<glyph unicode="&#xf7;" horiz-adv-x="1204" d="M162 625v61q0 29 28 29h822q31 0 30 -29v-61q0 -31 -30 -31h-819q-31 0 -31 31zM530 236v159q0 31 31 31h86q29 0 29 -31v-159q0 -31 -29 -31h-86q-31 0 -31 31zM530 922v159q0 31 31 31h86q29 0 29 -31v-159q0 -31 -29 -31h-86q-31 0 -31 31z" />
<glyph unicode="&#xf8;" horiz-adv-x="1050" d="M139 248v516q0 59 20.5 107.5t66.5 83t120 54t178 19.5q72 0 129.5 -10t100.5 -27l20 37q10 16 18.5 30.5t30.5 14.5h31q23 0 19.5 -13t-13.5 -32l-41 -72q47 -35 69.5 -84t22.5 -108v-516q0 -59 -21.5 -107.5t-67.5 -83t-119.5 -54t-178.5 -19.5q-74 0 -131 10t-100 26 l-19 -32q-12 -23 -21 -34t-30 -11h-26q-20 0 -18.5 15t9.5 30l37 67q-47 35 -66.5 84t-19.5 109zM281 258q0 -45 16 -76l395 701q-61 29 -168 28q-135 0 -189 -43t-54 -114v-496zM354 131q57 -31 170 -31q137 0 191.5 43t54.5 115v496q0 45 -20 77z" />
<glyph unicode="&#xf9;" d="M150 233v748q0 31 28 31h84q29 0 29 -31v-715q0 -72 42 -113.5t140 -41.5q55 0 102.5 12t84 29.5t64.5 37t44 33.5v758q0 31 29 31h84q29 0 28 -31v-950q0 -31 -28 -31h-76q-29 0 -31 31l-4 73q-20 -18 -51 -38.5t-73 -39t-95 -30.5t-117 -12q-143 0 -213.5 69.5 t-70.5 179.5zM318 1440.5q4 9.5 20 9.5h90q16 0 24.5 -8t16.5 -21l137 -229q10 -14 4 -21.5t-18 -7.5h-70q-16 0 -24.5 6.5t-12.5 12.5l-161 237q-10 12 -6 21.5z" />
<glyph unicode="&#xfa;" d="M150 233v748q0 31 28 31h84q29 0 29 -31v-715q0 -72 42 -113.5t140 -41.5q55 0 102.5 12t84 29.5t64.5 37t44 33.5v758q0 31 29 31h84q29 0 28 -31v-950q0 -31 -28 -31h-76q-29 0 -31 31l-4 73q-20 -18 -51 -38.5t-73 -39t-95 -30.5t-117 -12q-143 0 -213.5 69.5 t-70.5 179.5zM459 1170.5q-6 7.5 4 21.5l137 229q8 12 16.5 20.5t24.5 8.5h90q16 0 20.5 -9t-6.5 -22l-161 -237q-4 -6 -12.5 -12.5t-24.5 -6.5h-68q-14 0 -20 7.5z" />
<glyph unicode="&#xfb;" d="M150 233v748q0 31 28 31h84q29 0 29 -31v-715q0 -72 42 -113.5t140 -41.5q55 0 102.5 12t84 29.5t64.5 37t44 33.5v758q0 31 29 31h84q29 0 28 -31v-950q0 -31 -28 -31h-76q-29 0 -31 31l-4 73q-20 -18 -51 -38.5t-73 -39t-95 -30.5t-117 -12q-143 0 -213.5 69.5 t-70.5 179.5zM290 1171.5q-5 8.5 5 20.5l156 227q10 12 20 21.5t27 9.5h53q16 0 26.5 -8t20.5 -21l160 -229q18 -29 -17 -29h-65q-23 0 -41 29l-109 168l-108 -168q-6 -10 -16.5 -19.5t-24.5 -9.5h-66q-16 0 -21 8.5z" />
<glyph unicode="&#xfc;" d="M150 233v748q0 31 28 31h84q29 0 29 -31v-715q0 -72 42 -113.5t140 -41.5q55 0 102.5 12t84 29.5t64.5 37t44 33.5v758q0 31 29 31h84q29 0 28 -31v-950q0 -31 -28 -31h-76q-29 0 -31 31l-4 73q-20 -18 -51 -38.5t-73 -39t-95 -30.5t-117 -12q-143 0 -213.5 69.5 t-70.5 179.5zM369 1210v199q0 31 30 31h52q29 0 28 -31v-199q0 -29 -28 -28h-52q-31 0 -30 28zM590 1210v199q0 31 28 31h52q29 0 28 -31v-199q0 -29 -28 -28h-52q-29 0 -28 28z" />
<glyph unicode="&#xfd;" horiz-adv-x="884" d="M37 981q-4 14 3 22.5t23 8.5h84q16 0 23.5 -8.5t11.5 -22.5l232 -680q14 -43 20 -81t8 -42q2 6 12.5 46t20.5 73l234 684q4 14 11 22.5t23 8.5h78q37 0 27 -31l-469 -1374q-4 -12 -11.5 -21.5t-23.5 -9.5h-63q-35 0 -25 31l123 385zM385.5 1170.5q-6.5 7.5 3.5 21.5 l137 229q8 12 16.5 20.5t24.5 8.5h90q16 0 20.5 -9t-5.5 -22l-162 -237q-4 -6 -12.5 -12.5t-24.5 -6.5h-67q-14 0 -20.5 7.5z" />
<glyph unicode="&#xfe;" d="M162 -393v1794q0 31 28 31h84q29 0 29 -31v-496q23 18 55.5 40t75.5 40.5t96.5 30.5t118.5 12q147 0 216 -72.5t69 -189.5v-520q0 -119 -68.5 -190.5t-216.5 -71.5q-63 0 -117.5 12t-97.5 30.5t-75.5 39t-55.5 38.5v-497q0 -31 -29 -31h-84q-29 0 -28 31zM303 223 q16 -14 45 -33.5t69 -38t88 -32t105 -13.5q100 0 141.5 46.5t41.5 111.5v484q0 66 -41 111.5t-142 45.5q-57 0 -105 -13t-88 -31.5t-69 -39t-45 -35.5v-563z" />
<glyph unicode="&#xff;" horiz-adv-x="884" d="M37 981q-4 14 3 22.5t23 8.5h84q16 0 23.5 -8.5t11.5 -22.5l232 -680q14 -43 20 -81t8 -42q2 6 12.5 46t20.5 73l234 684q4 14 11 22.5t23 8.5h78q37 0 27 -31l-469 -1374q-4 -12 -11.5 -21.5t-23.5 -9.5h-63q-35 0 -25 31l123 385zM285 1210v199q0 31 30 31h52 q29 0 28 -31v-199q0 -29 -28 -28h-52q-31 0 -30 28zM506 1210v199q0 31 29 31h51q29 0 28 -31v-199q0 -29 -28 -28h-51q-29 0 -29 28z" />
<glyph unicode="&#x152;" horiz-adv-x="1789" d="M162 283v827q0 61 21.5 115.5t72.5 95.5t136 64.5t212 23.5q104 0 177 -22.5t122 -57.5v33q0 31 29 31h700q29 0 29 -29v-64q0 -29 -29 -28h-583v-484h546q31 0 31 -28v-60q0 -29 -31 -28h-546v-551h608q29 0 29 -29v-61q0 -31 -29 -31h-725q-29 0 -29 31v32 q-49 -37 -121.5 -58t-177.5 -21q-127 0 -212 23.5t-136 64.5t-72.5 95t-21.5 116zM307 305q0 -90 66.5 -145.5t230.5 -55.5q160 0 227.5 52.5t71.5 138.5v801q-4 88 -71.5 140t-227.5 52q-164 0 -230.5 -55t-66.5 -146v-782z" />
<glyph unicode="&#x153;" horiz-adv-x="1638" d="M139 246v518q0 59 20.5 107.5t66.5 83t120 54t178 19.5q123 0 196 -24.5t111 -69.5q41 45 117 69.5t199 24.5q104 0 176 -19.5t115 -54t61.5 -83t18.5 -107.5v-246q0 -29 -27 -29h-582v-237q0 -35 11.5 -64.5t39 -51t72.5 -33t115 -11.5q68 0 114 11.5t73.5 33t38.5 51 t11 64.5v37q0 31 31 30h70q29 0 28 -30v-43q0 -59 -17 -107.5t-60 -82t-114 -53t-175 -19.5q-121 0 -198 24.5t-118 67.5q-39 -43 -112.5 -67.5t-194.5 -24.5q-104 0 -178 19.5t-120 53t-66.5 81.5t-20.5 108zM281 256q0 -72 54 -115t189 -43q137 0 191.5 43t54.5 115v500 q0 72 -54 114.5t-192 42.5q-135 0 -189 -43t-54 -114v-500zM909 590h475v170q0 70 -50 115t-187 45q-70 0 -115 -11.5t-72.5 -33t-39 -51t-11.5 -64.5v-170z" />
<glyph unicode="&#x178;" horiz-adv-x="1058" d="M41 1385.5q6 7.5 22 7.5h99q16 0 23.5 -8.5t13.5 -22.5l301 -594q14 -29 21 -51.5t9 -26.5q0 4 10.5 32t20.5 46l311 594q6 12 13.5 21.5t23.5 9.5h86q35 0 21 -31l-412 -795v-536q0 -31 -31 -31h-86q-31 0 -30 31v520l-414 811q-8 16 -2 23.5zM365 1554v199q0 29 30 29 h49q29 0 29 -29v-199q0 -31 -29 -30h-49q-31 0 -30 30zM584 1554v199q0 29 30 29h50q31 0 30 -29v-199q0 -31 -30 -30h-50q-31 0 -30 30z" />
<glyph unicode="&#x2c6;" horiz-adv-x="710" d="M118 1171.5q-5 8.5 5 20.5l156 227q10 12 20 21.5t27 9.5h53q16 0 26.5 -8t20.5 -21l160 -229q18 -29 -17 -29h-65q-23 0 -41 29l-109 168l-108 -168q-6 -10 -16.5 -19.5t-24.5 -9.5h-66q-16 0 -21 8.5z" />
<glyph unicode="&#x2dc;" horiz-adv-x="864" d="M135 1210l4 56q6 92 47 126.5t101 34.5q57 0 112 -38l90 -66q18 -14 40 -25.5t38 -11.5q35 0 43 20.5t11 77.5v17q0 27 32 26h45q27 0 27 -32l-2 -52q-4 -92 -47 -128.5t-103 -36.5q-23 0 -52 9t-58 27l-92 66q-18 14 -39 25.5t-37 11.5q-35 0 -44 -20.5t-11 -75.5v-17 q0 -29 -31 -28h-47q-20 0 -23.5 12t-3.5 22z" />
<glyph unicode="&#x2000;" horiz-adv-x="908" />
<glyph unicode="&#x2001;" horiz-adv-x="1817" />
<glyph unicode="&#x2002;" horiz-adv-x="908" />
<glyph unicode="&#x2003;" horiz-adv-x="1817" />
<glyph unicode="&#x2004;" horiz-adv-x="605" />
<glyph unicode="&#x2005;" horiz-adv-x="454" />
<glyph unicode="&#x2006;" horiz-adv-x="302" />
<glyph unicode="&#x2007;" horiz-adv-x="302" />
<glyph unicode="&#x2008;" horiz-adv-x="227" />
<glyph unicode="&#x2009;" horiz-adv-x="363" />
<glyph unicode="&#x200a;" horiz-adv-x="100" />
<glyph unicode="&#x2010;" horiz-adv-x="933" d="M162 563v60q0 29 31 28h548q31 0 31 -28v-60q0 -31 -31 -31h-548q-31 0 -31 31z" />
<glyph unicode="&#x2011;" horiz-adv-x="933" d="M162 563v60q0 29 31 28h548q31 0 31 -28v-60q0 -31 -31 -31h-548q-31 0 -31 31z" />
<glyph unicode="&#x2012;" horiz-adv-x="933" d="M162 563v60q0 29 31 28h548q31 0 31 -28v-60q0 -31 -31 -31h-548q-31 0 -31 31z" />
<glyph unicode="&#x2013;" horiz-adv-x="1118" d="M162 563v60q0 29 31 28h733q31 0 30 -28v-60q0 -31 -30 -31h-733q-31 0 -31 31z" />
<glyph unicode="&#x2014;" horiz-adv-x="1751" d="M162 563v60q0 29 31 28h1366q31 0 30 -28v-60q0 -31 -30 -31h-1366q-31 0 -31 31z" />
<glyph unicode="&#x2018;" horiz-adv-x="452" d="M139 1112v131q0 92 49.5 154.5t157.5 95.5q27 8 37 -18l20 -60q6 -16 2 -24.5t-20 -14.5q-59 -27 -79.5 -59.5t-20.5 -79.5v-125q0 -31 -29 -31h-88q-29 0 -29 31z" />
<glyph unicode="&#x2019;" horiz-adv-x="450" d="M45 1183.5q4 8.5 21 14.5q59 27 79.5 59.5t20.5 79.5v125q0 31 29 31h88q29 0 28 -31v-131q0 -92 -49 -154.5t-158 -95.5q-29 -10 -36 19l-21 59q-6 16 -2 24.5z" />
<glyph unicode="&#x201a;" horiz-adv-x="450" d="M45 -88.5q4 8.5 21 14.5q59 27 79.5 59.5t20.5 80.5v124q0 31 29 31h88q29 0 28 -31v-131q0 -92 -49 -154.5t-158 -94.5q-29 -10 -36 18l-21 59q-6 16 -2 24.5z" />
<glyph unicode="&#x201c;" horiz-adv-x="774" d="M139 1112v131q0 92 49.5 154.5t157.5 95.5q27 8 37 -18l20 -60q6 -16 2 -24.5t-20 -14.5q-59 -27 -79.5 -59.5t-20.5 -79.5v-125q0 -31 -29 -31h-88q-29 0 -29 31zM463 1112v131q0 92 49 154.5t158 95.5q27 8 37 -18l20 -60q6 -16 2 -24.5t-20 -14.5q-59 -27 -80 -59.5 t-21 -79.5v-125q0 -31 -28 -31h-88q-29 0 -29 31z" />
<glyph unicode="&#x201d;" horiz-adv-x="774" d="M45 1183.5q4 8.5 21 14.5q59 27 79.5 59.5t20.5 79.5v125q0 31 29 31h88q29 0 28 -31v-131q0 -92 -49 -154.5t-158 -95.5q-29 -10 -36 19l-21 59q-6 16 -2 24.5zM369 1183.5q4 8.5 20 14.5q59 27 79.5 59.5t20.5 79.5v125q0 31 29 31h88q29 0 29 -31v-131 q0 -92 -49 -154.5t-158 -95.5q-29 -10 -37 19l-20 59q-6 16 -2 24.5z" />
<glyph unicode="&#x201e;" horiz-adv-x="774" d="M45 -88.5q4 8.5 21 14.5q59 27 79.5 59.5t20.5 80.5v124q0 31 29 31h88q29 0 28 -31v-131q0 -92 -49 -154.5t-158 -94.5q-29 -10 -36 18l-21 59q-6 16 -2 24.5zM369 -88.5q4 8.5 20 14.5q59 27 79.5 59.5t20.5 80.5v124q0 31 29 31h88q29 0 29 -31v-131q0 -92 -49 -154.5 t-158 -94.5q-29 -10 -37 18l-20 59q-6 16 -2 24.5z" />
<glyph unicode="&#x2022;" horiz-adv-x="514" d="M186 406v264q0 31 29 30h86q29 0 29 -30v-264q0 -31 -29 -31h-86q-29 0 -29 31z" />
<glyph unicode="&#x2026;" horiz-adv-x="1466" d="M154 31v159q0 31 30 31h86q29 0 29 -31v-159q0 -31 -29 -31h-86q-31 0 -30 31zM662 31v159q0 31 30 31h86q29 0 29 -31v-159q0 -31 -29 -31h-86q-31 0 -30 31zM1167 31v159q0 31 31 31h86q29 0 29 -31v-159q0 -31 -29 -31h-86q-31 0 -31 31z" />
<glyph unicode="&#x202f;" horiz-adv-x="363" />
<glyph unicode="&#x2039;" horiz-adv-x="763" d="M164 461v84q0 12 8 21t18 18l379 284q10 10 20.5 5t10.5 -21v-88q0 -16 -9 -25.5t-22 -19.5l-290 -217l290 -215q12 -10 21.5 -20.5t9.5 -26.5v-88q0 -16 -10 -20.5t-21 3.5l-379 285q-10 8 -18 17t-8 24z" />
<glyph unicode="&#x203a;" horiz-adv-x="763" d="M164 152v88q0 16 9 26t22 21l290 215l-290 217q-12 10 -21.5 19.5t-9.5 25.5v88q0 16 10 21.5t21 -5.5l378 -284q10 -8 18.5 -17.5t8.5 -21.5v-84q0 -14 -8 -23.5t-19 -17.5l-378 -285q-10 -8 -20.5 -4t-10.5 21z" />
<glyph unicode="&#x205f;" horiz-adv-x="454" />
<glyph unicode="&#x20ac;" horiz-adv-x="1329" d="M170 553v35q0 31 31 30h94v156h-94q-31 0 -31 31v37q0 29 31 28h94v240q0 61 20.5 115.5t69.5 95.5t132 64.5t210 23.5t210 -23.5t132 -64.5t69.5 -95.5t20.5 -115.5v-104q0 -33 -29 -33h-81q-31 0 -31 33v81q0 45 -14.5 81t-48 61.5t-89 40t-137.5 14.5t-137 -14.5 t-89 -40t-48.5 -61t-14.5 -81.5v-217h320q29 0 28 -28v-37q0 -31 -28 -31h-320v-156h320q29 0 28 -30v-35q0 -31 -28 -31h-320v-217q0 -45 14.5 -81t48.5 -61.5t89 -39.5t137 -14q162 0 225.5 53t63.5 143v109q0 31 31 30h81q29 0 29 -30v-131q0 -61 -20.5 -115.5 t-69.5 -95.5t-132 -64.5t-210 -23.5t-210 23.5t-132 64.5t-69.5 95t-20.5 116v239h-94q-31 0 -31 31z" />
<glyph unicode="&#x2122;" horiz-adv-x="1830" d="M184 1315v53q0 25 27 25h555q27 0 27 -25v-53q0 -25 -27 -25h-217v-708q0 -25 -23 -25h-75q-25 0 -25 25v708h-215q-27 0 -27 25zM891 582v786q0 25 22 25h68q16 0 23 -13l241 -506q6 -12 12.5 -27.5t10.5 -29.5q4 8 11 26.5t11 28.5l240 508q6 12 22 13h70q25 0 25 -25 v-786q0 -25 -25 -25h-70q-25 0 -24 25v577q-2 -8 -8.5 -25.5t-10.5 -27.5l-182 -397q-10 -25 -33 -25h-53q-23 0 -33 25l-186 401q-4 8 -9 23.5t-9 31.5v-583q0 -25 -23 -25h-68q-23 0 -22 25z" />
<glyph unicode="&#x25fc;" horiz-adv-x="1013" d="M0 0v1014h1014v-1014h-1014z" />
</font>
</defs>
</svg>
