<?xml version="1.0" encoding="iso-8859-1"?>
<!-- Generator: Adobe Illustrator 17.0.0, SVG Export Plug-In . SVG Version: 6.00 Build 0)  -->
<!DOCTYPE svg PUBLIC "-//W3C//DTD SVG 1.1//EN" "http://www.w3.org/Graphics/SVG/1.1/DTD/svg11.dtd">
<svg version="1.1" id="Capa_1" xmlns="http://www.w3.org/2000/svg" xmlns:xlink="http://www.w3.org/1999/xlink" x="0px" y="0px"
	 width="60px" height="60px" viewBox="0 0 64 64" style="enable-background:new 0 0 64 64;" xml:space="preserve"
	 fill="#565655">
<g>
	<path d="M46.083,6.085v5.886c5.581,3.936,9.451,10.139,10.256,17.261l-9.337,0.679l-0.004,4.167l9.34,0.696
		c-0.806,7.12-4.675,13.321-10.255,17.256v5.886C55.26,52.908,61.5,43.17,61.5,32S55.26,11.092,46.083,6.085z"/>
	<path d="M2.5,32c0,11.17,6.24,20.908,15.417,25.915v-5.886c-5.589-3.941-9.462-10.155-10.26-17.289l8.926-0.657v-4.167
		l-8.926-0.657c0.798-7.134,4.671-13.348,10.26-17.289V6.085C8.74,11.092,2.5,20.83,2.5,32z"/>
	<path d="M42.41,58.218l-2.9-2.9l-4.937-4.937c-0.616-0.616-1.436-0.956-2.308-0.956s-1.691,0.339-2.308,0.956l-5.065,5.065
		l-2.773,2.773c-0.51,0.51-0.7,0.947-0.748,1.293C21.334,59.783,21.38,60,21.44,60.145c0.136,0.329,0.557,0.881,1.844,0.881h3.483
		h10.467h4.014c1.287,0,1.708-0.552,1.844-0.881c0.073-0.177,0.129-0.462,0.026-0.827C43.03,59.007,42.83,58.637,42.41,58.218z"/>
	<circle cx="32" cy="32" r="2.375"/>
</g>
</svg>
