<?xml version="1.0" encoding="utf-8"?>
<!-- Generator: Adobe Illustrator 16.0.0, SVG Export Plug-In . SVG Version: 6.00 Build 0)  -->
<!DOCTYPE svg PUBLIC "-//W3C//DTD SVG 1.1//EN" "http://www.w3.org/Graphics/SVG/1.1/DTD/svg11.dtd">
<svg version="1.1" xmlns="http://www.w3.org/2000/svg" xmlns:xlink="http://www.w3.org/1999/xlink" x="0px" y="0px"
	 width="162.228px" height="116.144px" viewBox="34.689 26.523 162.228 116.144"
	 enable-background="new 34.689 26.523 162.228 116.144" xml:space="preserve">
<g id="Calque_2" display="none">
	<rect x="34.689" y="26.526" display="inline" width="162.228" height="116.141"/>
</g>
<g id="Layer_1">
	<polygon display="none" points="0,0 232,0 232,170 0,170 	"/>
	<g>
		<path fill="#FFFFFF" d="M80.123,26.524h-4.374H57.533c-4.67,0-7.445,2.268-8.325,6.803c-0.88,4.534,1.624,9.509,7.513,14.924
			c3.571,2.809,2.963,4.146-1.828,4.011H34.689v10.913h31.98c5.28-0.879,7.969-3.587,8.071-8.122
			c0.102-4.535-2.589-9.205-8.071-14.012c-3.062-2.538-2.419-3.739,1.93-3.604h7.148h4.374h7.25v25.736h11.93V37.437h11.625V26.523
			L80.123,26.524L80.123,26.524z"/>
		<path fill="#FFFFFF" d="M108.659,63.175l12.058-36.649h18.198l12.261,36.649h-13.859l-2.31-6.599h-10.889l-2.312,6.599H108.659
			L108.659,63.175z M129.854,34.646L124.6,49.165h10.104L129.854,34.646L129.854,34.646z"/>
		<path fill="#FFFFFF" d="M150.633,63.175v-36.65h23.858c2.944,0.271,5.362,1.049,7.259,2.335c1.896,1.284,3.284,3.012,4.164,5.178
			c0.677,3.249,0.71,5.753,0.102,7.513c-0.606,1.76-1.676,3.232-3.197,4.417c-1.521,1.186-3.702,2.115-6.547,2.792l2.737,3.504
			h17.908v10.913h-21.41l-11.625-12.104v12.104L150.633,63.175L150.633,63.175z M163.882,35.662v6.751h9.238
			c0.491,0,1.024-0.182,1.601-0.545c0.574-0.364,0.881-1.282,0.914-2.754c-0.085-1.404-0.429-2.331-1.027-2.779
			c-0.602-0.448-1.104-0.672-1.512-0.672L163.882,35.662L163.882,35.662z"/>
		<polygon fill="#FFFFFF" points="61.645,88.697 57.786,104.232 45.855,104.232 34.689,67.58 46.618,67.58 51.643,83.418 
			56.008,67.58 66.973,67.58 72.075,83.418 75.479,67.58 87.404,67.58 78.218,104.232 66.289,104.232 		"/>
		<path fill="#FFFFFF" d="M81.932,104.232L93.988,67.58h18.199l12.261,36.652h-13.861l-2.31-6.604H97.389l-2.311,6.604H81.932
			L81.932,104.232z M103.126,75.703l-5.254,14.518h10.103L103.126,75.703L103.126,75.703z"/>
		<path fill="#FFFFFF" d="M183.146,78.494l13.688-0.059V67.523l-24.757,0.057c-4.67,0-7.443,2.268-8.324,6.803
			c-0.879,4.535,1.625,9.51,7.515,14.924c3.569,2.813,2.961,4.146-1.828,4.014h-17.155l-2.741-3.504
			c2.844-0.678,5.023-1.604,6.55-2.791c1.521-1.188,2.591-2.653,3.197-4.416c0.606-1.764,0.573-4.268-0.104-7.516
			c-0.879-2.166-2.269-3.893-4.162-5.178c-1.896-1.287-4.312-2.064-7.26-2.336h-23.859v36.652h13.25V92.125l11.625,12.107h0.457
			h22.644h9.341c5.279-0.883,7.973-3.59,8.069-8.123c0.104-4.535-2.588-9.205-8.069-14.012
			C178.154,79.561,178.799,78.359,183.146,78.494L183.146,78.494z M147.993,82.924c-0.575,0.363-1.106,0.545-1.601,0.545h-9.238
			v-6.752h9.214c0.405,0,0.909,0.227,1.51,0.674c0.604,0.447,0.945,1.375,1.026,2.779C148.872,81.643,148.568,82.561,147.993,82.924
			L147.993,82.924z"/>
	</g>
	
		<text transform="matrix(1 0 0 1 39.8022 135.8301)" fill="#FFFFFF" font-family="'DINNextW01-CondensedRegular'" font-size="24" letter-spacing="8">STARSHIPS</text>
	<rect x="36.303" y="113.5" fill="#96302F" width="159" height="2.667"/>
	<rect x="36.303" y="140" fill="#96302F" width="159" height="2.667"/>
</g>
</svg>
