<?xml version="1.0" encoding="utf-8"?>
<!-- Generator: Adobe Illustrator 17.1.0, SVG Export Plug-In . SVG Version: 6.00 Build 0)  -->
<!DOCTYPE svg PUBLIC "-//W3C//DTD SVG 1.1//EN" "http://www.w3.org/Graphics/SVG/1.1/DTD/svg11.dtd">
<svg version="1.1" id="Layer_1" xmlns="http://www.w3.org/2000/svg" xmlns:xlink="http://www.w3.org/1999/xlink" x="0px" y="0px"
	 width="60px" height="60px" viewBox="0 0 1000 1000" enable-background="new 0 0 1000 1000" xml:space="preserve" fill="#565655">
<g>
	<path d="M981.279,750.457c-0.072-2.064-0.144-4.139-0.216-6.222c-0.076-2.081-0.153-4.17-0.23-6.266l-0.06-1.571l-0.03-0.787
		l-0.008-0.197l-0.019-1.761l-0.006-0.082l-0.025-0.325l-0.202-2.607c-0.271-3.48-0.542-6.974-0.813-10.468l-0.207-2.645
		l-0.313-3.428c-0.215-2.282-0.43-4.562-0.645-6.837c-0.223-2.271-0.447-4.538-0.669-6.799c-0.115-1.128-0.229-2.255-0.343-3.38
		c-0.138-1.041-0.276-2.081-0.414-3.119c-1.139-8.243-2.156-16.343-3.608-24.129c-0.686-3.896-1.32-7.727-2.032-11.462
		c-0.777-3.724-1.537-7.367-2.277-10.914c-1.402-7.097-3.163-13.726-4.647-19.855c-0.38-1.53-0.752-3.029-1.116-4.493
		c-0.404-1.456-0.799-2.877-1.184-4.263c-0.782-2.766-1.524-5.39-2.221-7.856c-0.71-2.461-1.336-4.771-1.99-6.888
		c-0.674-2.111-1.292-4.051-1.851-5.802c-0.829-2.575-1.528-4.743-2.079-6.455c-0.815-2.53-3.487-3.952-6.043-3.223l-160.613,45.772
		c-2.447,0.697-3.964,3.134-3.498,5.636c0.174,0.933,0.373,2.003,0.595,3.201c0.229,1.206,0.483,2.541,0.759,3.995
		c0.26,1.456,0.465,3.051,0.729,4.74c0.258,1.689,0.532,3.487,0.821,5.382c0.141,0.947,0.308,1.913,0.44,2.91
		c0.114,1.001,0.23,2.025,0.349,3.07c0.448,4.185,1.116,8.67,1.413,13.482c0.198,2.392,0.402,4.85,0.61,7.361
		c0.156,2.517,0.234,5.098,0.368,7.709c0.348,5.212,0.282,10.64,0.382,16.115l0.023,2.038l-0.072,1.806
		c-0.041,1.202-0.083,2.408-0.124,3.616c-0.032,1.204-0.065,2.411-0.098,3.619l-0.038,1.808l-0.11,2.601
		c-0.149,3.501-0.299,7.002-0.448,10.49l-0.112,2.613l-0.014,0.326l-0.003,0.081c0.002,0.393-0.031-3.112-0.02-1.598l-0.012,0.129
		l-0.048,0.516l-0.095,1.031c-0.124,1.372-0.248,2.739-0.371,4.101c-0.119,1.36-0.238,2.715-0.356,4.062
		c-0.16,1.342-0.319,2.678-0.478,4.005c-0.341,2.65-0.551,5.275-0.973,7.832c-0.37,2.558-0.734,5.073-1.09,7.535
		c-0.425,2.445-0.841,4.837-1.246,7.166c-0.366,2.33-0.856,4.574-1.292,6.746c-0.456,2.169-0.819,4.274-1.292,6.272
		c-0.461,1.997-0.903,3.91-1.324,5.73c-0.208,0.899-0.41,1.774-0.606,2.625c-0.202,0.73-0.398,1.438-0.588,2.125
		c-0.113,0.42-0.218,0.815-0.327,1.221H975.71c2.633,0,4.826-2.067,4.926-4.697c0.001-0.016,0.001-0.032,0.002-0.048
		c0.163-3.657,0.331-7.413,0.503-11.253c0.073-3.837,0.147-7.757,0.223-11.743c0.113-3.982-0.009-8.029-0.019-12.121
		C981.322,754.582,981.301,752.524,981.279,750.457z"/>
	<path d="M930.201,544.278c2.635-1.059,3.837-4.112,2.622-6.679c-0.54-1.141-1.171-2.474-1.886-3.984
		c-0.674-1.418-1.42-2.989-2.231-4.698c-1.049-2.136-2.183-4.447-3.395-6.916c-1.222-2.458-2.522-5.075-3.893-7.833
		c-0.695-1.434-1.378-2.617-2.093-3.963c-0.712-1.316-1.441-2.662-2.185-4.037c-1.497-2.745-3.029-5.613-4.671-8.551
		c-1.697-2.907-3.451-5.913-5.254-9.003c-0.904-1.541-1.821-3.102-2.749-4.683c-0.971-1.556-1.954-3.131-2.947-4.723
		c-1.997-3.171-4.038-6.412-6.113-9.706c-4.377-6.45-8.734-13.196-13.596-19.761c-1.195-1.653-2.395-3.312-3.598-4.975l-1.809-2.495
		l-1.884-2.453c-2.52-3.262-5.05-6.537-7.58-9.812c-2.576-3.237-5.24-6.406-7.85-9.587c-1.32-1.58-2.599-3.183-3.946-4.727
		c-1.351-1.539-2.698-3.074-4.04-4.602c-1.343-1.524-2.68-3.043-4.011-4.554c-1.323-1.516-2.657-3.008-4.033-4.45
		c-2.724-2.901-5.414-5.766-8.06-8.585c-2.65-2.81-5.393-5.451-8.005-8.091c-2.63-2.626-5.185-5.205-7.796-7.6
		c-2.581-2.416-5.092-4.766-7.521-7.04c-2.418-2.279-4.887-4.349-7.187-6.399c-2.319-2.028-4.542-3.971-6.656-5.819
		c-2.168-1.787-4.225-3.481-6.157-5.073c-1.934-1.586-3.743-3.07-5.416-4.442c-1.676-1.367-3.279-2.552-4.693-3.657
		c-2.057-1.579-3.795-2.913-5.176-3.973c-2.106-1.616-5.107-1.271-6.798,0.776L683.39,446.529c-1.625,1.968-1.487,4.844,0.327,6.64
		c0.72,0.712,1.552,1.536,2.489,2.463c0.897,0.901,1.925,1.855,2.98,2.969c1.053,1.113,2.192,2.318,3.409,3.604
		c1.218,1.28,2.514,2.642,3.88,4.078c1.317,1.483,2.702,3.043,4.147,4.67c1.427,1.642,2.987,3.273,4.471,5.09
		c1.497,1.8,3.044,3.66,4.635,5.573c1.622,1.878,3.168,3.917,4.77,5.977c1.585,2.074,3.279,4.12,4.871,6.312
		c1.593,2.186,3.212,4.409,4.851,6.659c0.836,1.108,1.629,2.262,2.41,3.434c0.79,1.163,1.584,2.331,2.381,3.505
		c0.798,1.169,1.6,2.343,2.404,3.52c0.802,1.177,1.537,2.411,2.312,3.615c1.522,2.431,3.099,4.828,4.595,7.278
		c1.458,2.473,2.917,4.946,4.369,7.409l1.09,1.838l1.021,1.877c0.681,1.247,1.361,2.49,2.038,3.727
		c2.795,4.889,5.154,9.929,7.623,14.667c1.13,2.427,2.241,4.814,3.329,7.151c0.544,1.164,1.082,2.316,1.614,3.454
		c0.493,1.157,0.979,2.301,1.459,3.429c0.965,2.247,1.904,4.433,2.812,6.547c0.839,2.143,1.649,4.213,2.427,6.2
		c0.389,0.992,0.769,1.962,1.141,2.911c0.352,0.927,0.788,1.928,1.023,2.699c0.554,1.62,1.08,3.156,1.574,4.6
		c0.504,1.434,0.976,2.775,1.413,4.016c0.573,1.71,1.099,3.28,1.574,4.698c0.529,1.584,0.995,2.984,1.395,4.182
		c0.898,2.694,3.879,4.067,6.514,3.008L930.201,544.278z"/>
	<path d="M491.218,357.898c1.305,0.178,2.75,0.375,4.324,0.59c1.564,0.272,3.256,0.567,5.063,0.882
		c1.804,0.31,3.724,0.639,5.748,0.987c1.757,0.292,3.579,0.716,5.471,1.112l54.405-111.282c-2.698-0.421-5.373-0.839-7.994-1.248
		c-1.796-0.267-3.564-0.574-5.325-0.794c-1.761-0.213-3.501-0.424-5.218-0.632c-3.428-0.407-6.763-0.804-9.989-1.187
		c-3.234-0.277-6.359-0.545-9.358-0.802c-3-0.23-5.862-0.533-8.6-0.663c-2.734-0.134-5.328-0.262-7.765-0.382
		c-2.434-0.115-4.712-0.222-6.818-0.322c-2.107-0.034-4.043-0.065-5.792-0.093c-2.46-0.03-4.548-0.055-6.222-0.075
		c-2.655-0.032-4.851,2.043-4.979,4.695l-4.961,103.577c-0.122,2.552,1.719,4.774,4.25,5.121
		C488.536,357.53,489.793,357.703,491.218,357.898z"/>
	<path d="M637.438,414.931c1.461,1.063,2.847,2.071,4.15,3.019c1.304,0.934,2.525,1.808,3.654,2.617
		c0.489,0.336,1.296,0.949,1.955,1.439c0.679,0.507,1.326,0.99,1.94,1.448c1.339,0.999,2.521,1.881,3.533,2.636
		c2.276,1.698,5.506,1.124,7.065-1.25l71.031-108.196c1.559-2.374,0.802-5.567-1.662-6.98c-1.095-0.628-2.375-1.362-3.823-2.193
		c-0.665-0.382-1.365-0.783-2.1-1.205c-0.801-0.453-1.638-0.927-2.511-1.421c-2.021-1.114-4.207-2.317-6.542-3.604
		c-2.336-1.273-4.823-2.627-7.444-4.056c-2.497-1.251-5.121-2.566-7.86-3.939c-2.75-1.342-5.556-2.835-8.565-4.19
		c-2.995-1.372-6.091-2.791-9.274-4.25c-3.161-1.492-6.497-2.847-9.883-4.269c-3.4-1.392-6.821-2.914-10.393-4.257
		c-0.905-0.343-1.824-0.69-2.736-1.036l-30.642,132.998c1.694,1.065,3.29,2.193,4.862,3.21
		C634.021,412.665,635.772,413.826,637.438,414.931z"/>
	<path d="M395.844,357.356c1.372-0.181,2.719-0.405,4.064-0.547c1.345-0.136,2.674-0.271,3.985-0.405
		c2.615-0.271,5.158-0.535,7.619-0.791c2.468-0.165,4.852-0.325,7.141-0.479c1.142-0.078,2.26-0.154,3.353-0.229
		c1.09-0.073,2.182-0.166,3.118-0.167c1.929-0.051,3.76-0.098,5.479-0.143c1.713-0.054,3.316-0.105,4.799-0.152
		c1.829-0.012,3.509-0.023,5.026-0.033c1.67-0.009,3.145-0.017,4.408-0.024c2.84-0.015,5.072-2.42,4.886-5.254l-6.394-97.57
		c-0.186-2.834-2.713-4.927-5.53-4.571c-1.253,0.158-2.716,0.343-4.373,0.552c-1.536,0.195-3.237,0.412-5.089,0.648
		c-2.188,0.325-4.554,0.675-7.083,1.05c-2.521,0.384-5.205,0.793-8.034,1.224c-1.448,0.204-2.781,0.475-4.18,0.739
		c-1.394,0.266-2.822,0.539-4.279,0.817c-2.909,0.562-5.939,1.148-9.076,1.754c-3.114,0.709-6.333,1.443-9.642,2.196
		c-1.651,0.379-3.325,0.764-5.019,1.154c-1.692,0.396-3.388,0.88-5.11,1.325c-3.434,0.915-6.942,1.85-10.51,2.8
		c-3.532,1.065-7.123,2.147-10.757,3.243c-1.812,0.561-3.642,1.09-5.462,1.689c-1.813,0.619-3.637,1.24-5.467,1.865
		c-1.827,0.626-3.661,1.254-5.5,1.885c-1.84,0.626-3.683,1.255-5.501,1.972c-3.645,1.391-7.304,2.788-10.963,4.185
		c-3.643,1.426-7.226,3.006-10.817,4.501c-1.79,0.763-3.585,1.499-5.354,2.282c-1.757,0.811-3.508,1.619-5.253,2.425
		c-1.741,0.806-3.476,1.61-5.201,2.409c-1.725,0.798-3.443,1.584-5.113,2.451c-3.352,1.692-6.663,3.364-9.919,5.008
		c-3.257,1.633-6.361,3.435-9.444,5.094c-3.069,1.69-6.087,3.302-8.934,5.039c-2.863,1.698-5.648,3.351-8.342,4.949
		c-2.702,1.576-5.208,3.278-7.664,4.816c-2.439,1.563-4.776,3.062-6.999,4.487c-2.175,1.493-4.239,2.909-6.178,4.24
		c-1.934,1.332-3.744,2.578-5.418,3.731c-1.672,1.153-3.151,2.296-4.514,3.284c-1.847,1.364-3.424,2.528-4.7,3.47
		c-2.131,1.573-2.631,4.544-1.141,6.735l40.515,59.566c1.442,2.12,4.261,2.785,6.494,1.525c1.029-0.58,2.245-1.267,3.632-2.049
		c1.209-0.669,2.517-1.459,3.994-2.228c1.476-0.769,3.072-1.6,4.777-2.488c1.7-0.889,3.51-1.835,5.417-2.832
		c1.94-0.93,3.979-1.908,6.107-2.928c2.138-0.996,4.307-2.137,6.646-3.132c2.321-1.019,4.721-2.072,7.189-3.155
		c2.443-1.125,5.031-2.108,7.649-3.158c2.632-1.02,5.267-2.174,8.029-3.149c2.749-0.991,5.545-1.998,8.374-3.018
		c1.403-0.533,2.847-0.984,4.294-1.446c1.444-0.465,2.896-0.932,4.353-1.401c1.454-0.47,2.914-0.942,4.377-1.416
		c1.472-0.447,2.965-0.847,4.449-1.275c2.979-0.824,5.937-1.738,8.937-2.504c3.002-0.743,6.004-1.486,8.994-2.225
		c1.485-0.395,2.991-0.704,4.49-1.013c1.496-0.315,2.988-0.629,4.474-0.942c1.483-0.315,2.959-0.628,4.429-0.94
		c1.473-0.294,2.954-0.521,4.415-0.784c2.922-0.507,5.808-1.009,8.648-1.501C390.295,358.123,393.099,357.735,395.844,357.356z"/>
	<path d="M119.585,434.37c-1.062,1.502-2.128,3.011-3.199,4.526c-1.068,1.514-2.14,3.035-3.216,4.559
		c-1.071,1.527-2.073,3.111-3.115,4.669c-2.054,3.137-4.156,6.25-6.168,9.422c-1.965,3.199-3.93,6.398-5.887,9.585l-1.46,2.386
		l-1.386,2.424c-0.921,1.613-1.839,3.221-2.754,4.823c-3.74,6.352-6.989,12.847-10.291,19.015c-1.537,3.145-3.049,6.238-4.529,9.265
		c-0.734,1.513-1.461,3.01-2.178,4.488c-0.675,1.499-1.341,2.98-1.999,4.442c-1.31,2.919-2.584,5.758-3.817,8.505
		c-1.15,2.78-2.262,5.465-3.329,8.044c-1.046,2.585-2.103,5.034-3.004,7.409c-0.889,2.377-1.733,4.632-2.527,6.751
		c-0.79,2.117-1.529,4.098-2.212,5.929c-0.631,1.851-1.21,3.55-1.734,5.085c-0.68,2.017-1.264,3.75-1.741,5.167
		c-0.845,2.506,0.44,5.226,2.91,6.173l37.71,14.457c2.4,0.92,5.103-0.154,6.212-2.473c0.55-1.149,1.207-2.523,1.962-4.102
		c0.626-1.301,1.318-2.742,2.073-4.311c0.802-1.545,1.669-3.216,2.596-5.002c0.924-1.783,1.906-3.68,2.942-5.68
		c1.044-1.994,2.246-4.04,3.439-6.199c1.208-2.149,2.467-4.388,3.77-6.705c1.373-2.274,2.792-4.625,4.252-7.043
		c0.727-1.207,1.464-2.43,2.21-3.668c0.785-1.215,1.58-2.445,2.383-3.688c1.606-2.48,3.247-5.013,4.916-7.59
		c3.546-5.019,7.014-10.307,10.933-15.407c0.957-1.288,1.918-2.581,2.882-3.878l1.445-1.947l1.514-1.905
		c2.016-2.538,4.04-5.085,6.064-7.633c2.061-2.515,4.2-4.967,6.279-7.44c1.054-1.226,2.066-2.478,3.145-3.672
		c1.08-1.191,2.156-2.378,3.228-3.561c1.07-1.182,2.135-2.359,3.195-3.531c1.05-1.178,2.11-2.335,3.211-3.445
		c2.166-2.243,4.306-4.459,6.411-6.639c2.101-2.177,4.294-4.198,6.364-6.24c2.086-2.027,4.104-4.027,6.182-5.86
		c2.044-1.86,4.032-3.669,5.956-5.42c1.908-1.761,3.874-3.333,5.69-4.911c1.828-1.557,3.58-3.049,5.246-4.468
		c1.636-1.295,3.188-2.523,4.646-3.678c1.45-1.155,2.807-2.236,4.062-3.236c0.576-0.475,1.356-1.046,2.015-1.547
		c0.676-0.51,1.321-0.997,1.933-1.458c1.333-1.006,2.51-1.894,3.518-2.655c2.267-1.711,2.618-4.973,0.774-7.133l-42.935-50.299
		c-1.844-2.16-5.121-2.325-7.166-0.355c-0.909,0.876-1.972,1.899-3.174,3.058c-0.552,0.531-1.134,1.092-1.744,1.679
		c-0.621,0.603-1.212,1.152-1.982,1.939c-1.472,1.485-3.063,3.092-4.764,4.808c-1.692,1.717-3.493,3.544-5.392,5.47
		c-1.765,1.912-3.621,3.922-5.557,6.019c-1.912,2.113-3.974,4.242-5.969,6.576c-2.003,2.322-4.073,4.722-6.202,7.19
		c-2.155,2.439-4.24,5.057-6.385,7.714c-2.129,2.671-4.373,5.336-6.514,8.16c-2.135,2.824-4.305,5.696-6.501,8.603
		C121.706,431.372,120.639,432.86,119.585,434.37z"/>
	<path d="M41.565,610.722c-0.251,1.237-0.545,2.683-0.878,4.32c-0.305,1.502-0.643,3.166-1.011,4.977
		c-0.361,1.851-0.714,4.04-1.108,6.272c-0.388,2.253-0.8,4.651-1.234,7.179c-0.21,1.26-0.45,2.562-0.649,3.875
		c-0.177,1.304-0.357,2.638-0.542,4c-0.704,5.453-1.631,11.321-2.165,17.589c-0.31,3.123-0.628,6.33-0.953,9.609
		c-0.268,3.282-0.447,6.645-0.678,10.053c-0.54,6.81-0.639,13.874-0.864,21.021l-0.073,2.685l0.013,2.698
		c0.01,1.8,0.02,3.605,0.03,5.414c0.011,1.806,0.022,3.616,0.032,5.428l0.017,2.716l0.104,2.718
		c0.147,3.619,0.294,7.237,0.441,10.841l0.111,2.696l0.034,0.872l0.048,0.65l0.096,1.3c0.128,1.732,0.255,3.459,0.382,5.179
		c0.127,1.72,0.254,3.434,0.379,5.138c0.173,1.779,0.344,3.549,0.516,5.309c0.173,1.758,0.345,3.505,0.516,5.24
		c0.086,0.866,0.172,1.729,0.258,2.589c0.107,0.846,0.214,1.688,0.32,2.528c0.426,3.351,0.845,6.646,1.255,9.872
		c0.495,3.211,0.979,6.353,1.449,9.411c0.44,3.058,1.007,6.014,1.528,8.873c0.043,0.229,0.086,0.457,0.128,0.683
		c0.435,2.338,2.469,4.03,4.846,4.03h13.291c2.838,0,5.09-2.387,4.923-5.22c-0.045-0.756-0.091-1.519-0.142-2.29
		c-0.166-2.756-0.366-5.599-0.43-8.533c-0.096-2.927-0.194-5.935-0.295-9.008c-0.019-3.073-0.038-6.212-0.057-9.405
		c-0.005-0.797-0.01-1.597-0.015-2.4c0.017-0.792,0.035-1.587,0.053-2.385c0.035-1.593,0.07-3.198,0.106-4.812
		c0.035-1.613,0.071-3.236,0.107-4.866c0.08-1.708,0.159-3.424,0.24-5.147c0.08-1.723,0.161-3.453,0.241-5.188l0.061-1.302
		l0.03-0.652l0.004-0.082c0-0.208,0.004,0.192,0.006,0.123l0.012-0.158l0.025-0.315l0.202-2.524
		c0.268-3.364,0.537-6.74,0.807-10.117l0.206-2.527l0.291-2.521c0.194-1.678,0.387-3.354,0.58-5.028
		c0.192-1.671,0.384-3.339,0.575-5.001l0.285-2.488l0.369-2.471c1.012-6.571,1.872-13.033,3.132-19.222
		c0.591-3.099,1.12-6.149,1.727-9.118c0.661-2.957,1.307-5.85,1.936-8.666c1.164-5.641,2.673-10.886,3.901-15.747
		c0.315-1.213,0.623-2.401,0.924-3.562c0.318-1.143,0.661-2.225,0.977-3.297c0.637-2.133,1.242-4.157,1.81-6.058
		c0.581-1.918,1.058-3.633,1.614-5.355c0.583-1.754,1.117-3.365,1.601-4.82c0.526-1.585,0.991-2.985,1.389-4.184
		c0.895-2.695-0.668-5.58-3.412-6.312l-33.319-8.884C44.923,606.215,42.131,607.939,41.565,610.722z"/>
	<path d="M418.728,783.42c10.839,5.299,22.323,7.811,33.627,7.811c28.378,0,55.651-15.812,68.954-43.025
		c2.561-5.238,4.545-11.021,5.835-16.466l77.577-336.717l29.544-128.233l18.302-79.437c2.13-9.245-5.223-15.543-12.601-15.543
		c-4.32,0-8.648,2.159-11.087,7.148l-37.245,76.183l-54.945,112.386L383.514,680.839C364.911,718.89,380.677,764.818,418.728,783.42
		z M455.199,674.985c20.759,0,37.588,16.829,37.588,37.588c0,20.759-16.829,37.588-37.588,37.588
		c-20.759,0-37.588-16.829-37.588-37.588C417.611,691.813,434.44,674.985,455.199,674.985z"/>
</g>
</svg>
